<?xml version="1.0" encoding="UTF-8" standalone="no"?>
<svg
   width="158.75mm"
   height="105.833mm"
   version="1.2"
   id="svg80"
   xmlns="http://www.w3.org/2000/svg"
   xmlns:svg="http://www.w3.org/2000/svg">
  <desc
     id="desc2">Created by HiQPdf</desc>
  <defs
     id="defs4">
    <clipPath
       id="clip2">
      <path
         d="m 459,370 h 4 v 102 h -4 z m 0,0"
         id="path52" />
    </clipPath>
    <clipPath
       id="clip3">
      <path
         d="m 463.70312,370.58594 -3.75,3.75 v 97.62109 h 3.75"
         id="path55" />
    </clipPath>
    <clipPath
       id="clip4">
      <path
         d="m 463.70312,370.66016 h -3.75 v 97.62109 l 3.75,3.75391"
         id="path58" />
    </clipPath>
    <clipPath
       id="clip5">
      <path
         d="m 462,370 h 2 v 102 h -2 z m 0,0"
         id="path61" />
    </clipPath>
    <clipPath
       id="clip6">
      <path
         d="m 463.70312,370.58594 -3.75,3.75 v 97.62109 h 3.75"
         id="path64" />
    </clipPath>
    <clipPath
       id="clip7">
      <path
         d="m 463.70312,370.66016 h -3.75 v 97.62109 l 3.75,3.75391"
         id="path67" />
    </clipPath>
    <clipPath
       id="clip8">
      <path
         d="m 132,370 h 3 v 102 h -3 z m 0,0"
         id="path70" />
    </clipPath>
    <clipPath
       id="clip9">
      <path
         d="m 132.04687,472.03516 3.75,-3.75391 v -97.62109 h -3.75"
         id="path73" />
    </clipPath>
    <clipPath
       id="clip10">
      <path
         d="m 132.04687,471.95703 h 3.75 v -97.62109 l -3.75,-3.75"
         id="path76" />
    </clipPath>
    <clipPath
       id="clip11">
      <path
         d="m 134,370 h 2 v 102 h -2 z m 0,0"
         id="path79" />
    </clipPath>
    <clipPath
       id="clip12">
      <path
         d="m 132.04687,472.03516 3.75,-3.75391 v -97.62109 h -3.75"
         id="path82" />
    </clipPath>
    <clipPath
       id="clip13">
      <path
         d="m 132.04687,471.95703 h 3.75 v -97.62109 l -3.75,-3.75"
         id="path85" />
    </clipPath>
    <clipPath
       id="clip14">
      <path
         d="m 147.80469,419.43359 h 300.14062 v 3.75 H 147.80469 Z m 0,0"
         id="path88" />
    </clipPath>
  </defs>
  <g
     fill="none"
     stroke="black"
     stroke-width="1"
     fill-rule="evenodd"
     stroke-linecap="square"
     stroke-linejoin="bevel"
     id="g78">
    <g
       fill="#000000"
       fill-opacity="1"
       stroke="#000000"
       stroke-opacity="1"
       stroke-width="1"
       stroke-linecap="square"
       stroke-linejoin="miter"
       stroke-miterlimit="2"
       transform="matrix(1,0,0,1,0,0)"
       id="g6" />
    <g
       fill="#000000"
       fill-opacity="1"
       stroke="#000000"
       stroke-opacity="1"
       stroke-width="1"
       stroke-linecap="square"
       stroke-linejoin="miter"
       stroke-miterlimit="2"
       transform="matrix(1,0,0,1,0,0)"
       id="g8" />
    <g
       fill="#000000"
       fill-opacity="1"
       stroke="#000000"
       stroke-opacity="1"
       stroke-width="1"
       stroke-linecap="square"
       stroke-linejoin="miter"
       stroke-miterlimit="2"
       transform="matrix(1,0,0,1,0,0)"
       id="g10" />
    <g
       fill="#fbfbfb"
       fill-opacity="1"
       stroke="none"
       transform="matrix(1,0,0,1,0,0)"
       id="g14"
       style="fill:#fdc2e1;fill-opacity:1">
      <path
         vector-effect="none"
         fill-rule="evenodd"
         d="M8,8 L592,8 L592,380 L8,380 L8,8"
         id="path12"
         style="fill:#fdc2e1;fill-opacity:1" />
    </g>
    <g
       fill="#000000"
       fill-opacity="1"
       stroke="#000000"
       stroke-opacity="1"
       stroke-width="1"
       stroke-linecap="square"
       stroke-linejoin="miter"
       stroke-miterlimit="2"
       transform="matrix(1,0,0,1,0,0)"
       id="g16" />
    <g
       fill="#000000"
       fill-opacity="1"
       stroke="#000000"
       stroke-opacity="1"
       stroke-width="1"
       stroke-linecap="square"
       stroke-linejoin="miter"
       stroke-miterlimit="2"
       transform="matrix(1,0,0,1,0,0)"
       id="g18" />
    <g
       fill="#000000"
       fill-opacity="1"
       stroke="#000000"
       stroke-opacity="1"
       stroke-width="1"
       stroke-linecap="square"
       stroke-linejoin="miter"
       stroke-miterlimit="2"
       transform="matrix(1,0,0,1,0,0)"
       id="g20" />
    <g
       fill="#000000"
       fill-opacity="1"
       stroke="#000000"
       stroke-opacity="1"
       stroke-width="1"
       stroke-linecap="square"
       stroke-linejoin="miter"
       stroke-miterlimit="2"
       transform="matrix(1,0,0,1,0,0)"
       id="g26" />
    <g
       fill="#000000"
       fill-opacity="1"
       stroke="#000000"
       stroke-opacity="1"
       stroke-width="1"
       stroke-linecap="square"
       stroke-linejoin="miter"
       stroke-miterlimit="2"
       transform="matrix(1,0,0,1,0,0)"
       id="g46" />
    <g
       fill="#000000"
       fill-opacity="1"
       stroke="#000000"
       stroke-opacity="1"
       stroke-width="1"
       stroke-linecap="square"
       stroke-linejoin="miter"
       stroke-miterlimit="2"
       transform="matrix(1,0,0,1,0,0)"
       id="g52" />
    <g
       fill="#000000"
       fill-opacity="1"
       stroke="#000000"
       stroke-opacity="1"
       stroke-width="1"
       stroke-linecap="square"
       stroke-linejoin="miter"
       stroke-miterlimit="2"
       transform="matrix(1,0,0,1,0,0)"
       id="g54" />
    <g
       fill="#000000"
       fill-opacity="1"
       stroke="#000000"
       stroke-opacity="1"
       stroke-width="1"
       stroke-linecap="square"
       stroke-linejoin="miter"
       stroke-miterlimit="2"
       transform="matrix(1,0,0,1,0,0)"
       id="g56" />
    <g
       fill="#000000"
       fill-opacity="1"
       stroke="#000000"
       stroke-opacity="1"
       stroke-width="1"
       stroke-linecap="square"
       stroke-linejoin="miter"
       stroke-miterlimit="2"
       transform="matrix(1,0,0,1,0,0)"
       id="g58" />
    <g
       fill="#000000"
       fill-opacity="1"
       stroke="#000000"
       stroke-opacity="1"
       stroke-width="1"
       stroke-linecap="square"
       stroke-linejoin="miter"
       stroke-miterlimit="2"
       transform="matrix(1,0,0,1,0,0)"
       id="g72" />
    <g
       fill="#000000"
       fill-opacity="1"
       stroke="#000000"
       stroke-opacity="1"
       stroke-width="1"
       stroke-linecap="square"
       stroke-linejoin="miter"
       stroke-miterlimit="2"
       transform="matrix(1,0,0,1,0,0)"
       id="g74" />
    <g
       fill="#000000"
       fill-opacity="1"
       stroke="#000000"
       stroke-opacity="1"
       stroke-width="1"
       stroke-linecap="square"
       stroke-linejoin="miter"
       stroke-miterlimit="2"
       transform="matrix(1,0,0,1,0,0)"
       id="g76" />
    <path
       style="fill:#f587ff;fill-opacity:1;fill-rule:nonzero;stroke:none;stroke-width:1.33333"
       d="M 74.031329,124.16447 H 516.23965 V 259.22696 H 74.031329 Z m 0,0"
       id="path99" />
    <path
       style="fill:#91356b;fill-opacity:1;fill-rule:nonzero;stroke:none;stroke-width:1.33333"
       d="M 74.031329,124.16447 H 516.23965 v 3 H 74.031329 Z m 0,0"
       id="path101" />
    <path
       style="fill:#e654ab;fill-opacity:1;fill-rule:nonzero;stroke:none;stroke-width:1.33333"
       d="M 74.031329,127.16447 H 516.23965 v 2 H 74.031329 Z m 0,0"
       id="path103" />
    <path
       style="fill:#91356b;fill-opacity:1;fill-rule:nonzero;stroke:none;stroke-width:1.33333"
       d="M 74.031329,254.22696 H 516.23965 v 3 H 74.031329 Z m 0,0"
       id="path105" />
    <path
       style="fill:#e654ab;fill-opacity:1;fill-rule:nonzero;stroke:none;stroke-width:1.33333"
       d="M 74.031329,257.22696 H 516.23965 v 2 H 74.031329 Z m 0,0"
       id="path107" />
    <g
       clip-path="url(#clip2)"
       clip-rule="nonzero"
       id="g115"
       transform="matrix(1.3333333,0,0,1.3333333,-102.03116,-370.04906)">
      <g
         clip-path="url(#clip3)"
         clip-rule="nonzero"
         id="g113">
        <g
           clip-path="url(#clip4)"
           clip-rule="nonzero"
           id="g111">
          <path
             style="fill:#91356b;fill-opacity:1;fill-rule:nonzero;stroke:none"
             d="m 459.95312,370.66016 h 2.25 v 101.29687 h -2.25 z m 0,0"
             id="path109" />
        </g>
      </g>
    </g>
    <g
       clip-path="url(#clip5)"
       clip-rule="nonzero"
       id="g123"
       transform="matrix(1.3333333,0,0,1.3333333,-102.03116,-370.04906)">
      <g
         clip-path="url(#clip6)"
         clip-rule="nonzero"
         id="g121">
        <g
           clip-path="url(#clip7)"
           clip-rule="nonzero"
           id="g119">
          <path
             style="fill:#e654ab;fill-opacity:1;fill-rule:nonzero;stroke:none"
             d="m 462.20312,370.66016 h 1.5 v 101.29687 h -1.5 z m 0,0"
             id="path117" />
        </g>
      </g>
    </g>
    <g
       clip-path="url(#clip8)"
       clip-rule="nonzero"
       id="g131"
       transform="matrix(1.3333333,0,0,1.3333333,-102.03116,-370.04906)">
      <g
         clip-path="url(#clip9)"
         clip-rule="nonzero"
         id="g129">
        <g
           clip-path="url(#clip10)"
           clip-rule="nonzero"
           id="g127">
          <path
             style="fill:#91356b;fill-opacity:1;fill-rule:nonzero;stroke:none"
             d="m 132.04687,370.66016 h 2.25 v 101.29687 h -2.25 z m 0,0"
             id="path125" />
        </g>
      </g>
    </g>
    <g
       clip-path="url(#clip11)"
       clip-rule="nonzero"
       id="g139"
       transform="matrix(1.3333333,0,0,1.3333333,-102.03116,-370.04906)">
      <g
         clip-path="url(#clip12)"
         clip-rule="nonzero"
         id="g137">
        <g
           clip-path="url(#clip13)"
           clip-rule="nonzero"
           id="g135">
          <path
             style="fill:#e654ab;fill-opacity:1;fill-rule:nonzero;stroke:none"
             d="m 134.29687,370.66016 h 1.5 v 101.29687 h -1.5 z m 0,0"
             id="path133" />
        </g>
      </g>
    </g>
    <g
       clip-path="url(#clip14)"
       clip-rule="nonzero"
       id="g143"
       transform="matrix(1.3333333,0,0,1.3333333,-102.03116,-370.04906)">
      <path
         style="fill:#fdc2e1;fill-opacity:1;fill-rule:nonzero;stroke:none"
         d="m 151.55469,421.30859 c 0,0.25 -0.0469,0.48828 -0.14063,0.71875 -0.0977,0.23047 -0.23047,0.4336 -0.41015,0.60938 -0.17579,0.17578 -0.375,0.30859 -0.60547,0.40625 -0.23047,0.0937 -0.46875,0.14062 -0.71875,0.14062 -0.25,0 -0.48828,-0.0469 -0.71875,-0.14062 -0.23047,-0.0977 -0.4336,-0.23047 -0.60938,-0.40625 -0.17578,-0.17578 -0.30859,-0.37891 -0.40625,-0.60938 -0.0937,-0.23047 -0.14062,-0.46875 -0.14062,-0.71875 0,-0.25 0.0469,-0.48828 0.14062,-0.71875 0.0977,-0.22656 0.23047,-0.42968 0.40625,-0.60547 0.17578,-0.17578 0.37891,-0.3125 0.60938,-0.41015 0.23047,-0.0937 0.46875,-0.14063 0.71875,-0.14063 0.25,0 0.48828,0.0469 0.71875,0.14063 0.23047,0.0976 0.42968,0.23437 0.60547,0.41015 0.17968,0.17579 0.3125,0.37891 0.41015,0.60547 0.0937,0.23047 0.14063,0.46875 0.14063,0.71875 z m 7.40234,0 c 0,0.25 -0.0469,0.48828 -0.14062,0.71875 -0.0977,0.23047 -0.23438,0.4336 -0.41016,0.60938 -0.17578,0.17578 -0.375,0.30859 -0.60547,0.40625 -0.23047,0.0937 -0.46875,0.14062 -0.71875,0.14062 -0.25,0 -0.48828,-0.0469 -0.71875,-0.14062 -0.23047,-0.0977 -0.43359,-0.23047 -0.60937,-0.40625 -0.17579,-0.17578 -0.3086,-0.37891 -0.40625,-0.60938 -0.0937,-0.23047 -0.14063,-0.46875 -0.14063,-0.71875 0,-0.25 0.0469,-0.48828 0.14063,-0.71875 0.0977,-0.22656 0.23046,-0.42968 0.40625,-0.60547 0.17578,-0.17578 0.3789,-0.3125 0.60937,-0.41015 0.23047,-0.0937 0.46875,-0.14063 0.71875,-0.14063 0.25,0 0.48828,0.0469 0.71875,0.14063 0.23047,0.0976 0.42969,0.23437 0.60547,0.41015 0.17578,0.17579 0.3125,0.37891 0.41016,0.60547 0.0937,0.23047 0.14062,0.46875 0.14062,0.71875 z m 7.40234,0 c 0,0.25 -0.0469,0.48828 -0.14062,0.71875 -0.0977,0.23047 -0.23438,0.4336 -0.41016,0.60938 -0.17578,0.17578 -0.3789,0.30859 -0.60547,0.40625 -0.23046,0.0937 -0.46875,0.14062 -0.71875,0.14062 -0.25,0 -0.48828,-0.0469 -0.71875,-0.14062 -0.23046,-0.0977 -0.43359,-0.23047 -0.60937,-0.40625 -0.17578,-0.17578 -0.30859,-0.37891 -0.40625,-0.60938 -0.0937,-0.23047 -0.14063,-0.46875 -0.14063,-0.71875 0,-0.25 0.0469,-0.48828 0.14063,-0.71875 0.0977,-0.22656 0.23047,-0.42968 0.40625,-0.60547 0.17578,-0.17578 0.37891,-0.3125 0.60937,-0.41015 0.23047,-0.0937 0.46875,-0.14063 0.71875,-0.14063 0.25,0 0.48829,0.0469 0.71875,0.14063 0.22657,0.0976 0.42969,0.23437 0.60547,0.41015 0.17578,0.17579 0.3125,0.37891 0.41016,0.60547 0.0937,0.23047 0.14062,0.46875 0.14062,0.71875 z m 7.40235,0 c 0,0.25 -0.0469,0.48828 -0.14063,0.71875 -0.0977,0.23047 -0.23437,0.4336 -0.41015,0.60938 -0.17578,0.17578 -0.37891,0.30859 -0.60547,0.40625 -0.23047,0.0937 -0.46875,0.14062 -0.71875,0.14062 -0.25,0 -0.48828,-0.0469 -0.71875,-0.14062 -0.23047,-0.0977 -0.4336,-0.23047 -0.60938,-0.40625 -0.17578,-0.17578 -0.30859,-0.37891 -0.40625,-0.60938 -0.0937,-0.23047 -0.14062,-0.46875 -0.14062,-0.71875 0,-0.25 0.0469,-0.48828 0.14062,-0.71875 0.0977,-0.22656 0.23047,-0.42968 0.40625,-0.60547 0.17578,-0.17578 0.37891,-0.3125 0.60938,-0.41015 0.23047,-0.0937 0.46875,-0.14063 0.71875,-0.14063 0.25,0 0.48828,0.0469 0.71875,0.14063 0.22656,0.0976 0.42969,0.23437 0.60547,0.41015 0.17578,0.17579 0.3125,0.37891 0.41015,0.60547 0.0937,0.23047 0.14063,0.46875 0.14063,0.71875 z m 7.40234,0 c 0,0.25 -0.0469,0.48828 -0.14062,0.71875 -0.0977,0.23047 -0.23438,0.4336 -0.41016,0.60938 -0.17578,0.17578 -0.37891,0.30859 -0.60547,0.40625 -0.23047,0.0937 -0.46875,0.14062 -0.71875,0.14062 -0.25,0 -0.48828,-0.0469 -0.71875,-0.14062 -0.23047,-0.0977 -0.43359,-0.23047 -0.60937,-0.40625 -0.17578,-0.17578 -0.3086,-0.37891 -0.40625,-0.60938 -0.0937,-0.23047 -0.14063,-0.46875 -0.14063,-0.71875 0,-0.25 0.0469,-0.48828 0.14063,-0.71875 0.0977,-0.22656 0.23047,-0.42968 0.40625,-0.60547 0.17578,-0.17578 0.3789,-0.3125 0.60937,-0.41015 0.23047,-0.0937 0.46875,-0.14063 0.71875,-0.14063 0.25,0 0.48828,0.0469 0.71875,0.14063 0.22656,0.0976 0.42969,0.23437 0.60547,0.41015 0.17578,0.17579 0.3125,0.37891 0.41016,0.60547 0.0937,0.23047 0.14062,0.46875 0.14062,0.71875 z m 7.40235,0 c 0,0.25 -0.0469,0.48828 -0.14063,0.71875 -0.0977,0.23047 -0.23437,0.4336 -0.41016,0.60938 -0.17578,0.17578 -0.3789,0.30859 -0.60546,0.40625 -0.23047,0.0937 -0.46875,0.14062 -0.71875,0.14062 -0.25,0 -0.48829,-0.0469 -0.71875,-0.14062 -0.23047,-0.0977 -0.4336,-0.23047 -0.60938,-0.40625 -0.17578,-0.17578 -0.30859,-0.37891 -0.40625,-0.60938 -0.0937,-0.23047 -0.14062,-0.46875 -0.14062,-0.71875 0,-0.25 0.0469,-0.48828 0.14062,-0.71875 0.0977,-0.22656 0.23047,-0.42968 0.40625,-0.60547 0.17578,-0.17578 0.37891,-0.3125 0.60938,-0.41015 0.23046,-0.0937 0.46875,-0.14063 0.71875,-0.14063 0.25,0 0.48828,0.0469 0.71875,0.14063 0.22656,0.0976 0.42968,0.23437 0.60546,0.41015 0.17579,0.17579 0.3125,0.37891 0.41016,0.60547 0.0937,0.23047 0.14063,0.46875 0.14063,0.71875 z m 7.40234,0 c 0,0.25 -0.0469,0.48828 -0.14453,0.71875 -0.0937,0.23047 -0.23047,0.4336 -0.40625,0.60938 -0.17578,0.17578 -0.37891,0.30859 -0.60547,0.40625 -0.23047,0.0937 -0.46875,0.14062 -0.71875,0.14062 -0.25,0 -0.48828,-0.0469 -0.71875,-0.14062 -0.23047,-0.0977 -0.43359,-0.23047 -0.60938,-0.40625 -0.17578,-0.17578 -0.30859,-0.37891 -0.40625,-0.60938 -0.0937,-0.23047 -0.14062,-0.46875 -0.14062,-0.71875 0,-0.25 0.0469,-0.48828 0.14062,-0.71875 0.0977,-0.22656 0.23047,-0.42968 0.40625,-0.60547 0.17579,-0.17578 0.37891,-0.3125 0.60938,-0.41015 0.23047,-0.0937 0.46875,-0.14063 0.71875,-0.14063 0.25,0 0.48828,0.0469 0.71875,0.14063 0.22656,0.0976 0.42969,0.23437 0.60547,0.41015 0.17578,0.17579 0.3125,0.37891 0.40625,0.60547 0.0977,0.23047 0.14453,0.46875 0.14453,0.71875 z m 7.40234,0 c 0,0.25 -0.0469,0.48828 -0.14453,0.71875 -0.0937,0.23047 -0.23047,0.4336 -0.40625,0.60938 -0.17578,0.17578 -0.3789,0.30859 -0.60547,0.40625 -0.23047,0.0937 -0.47265,0.14062 -0.71875,0.14062 -0.25,0 -0.48828,-0.0469 -0.71875,-0.14062 -0.23047,-0.0977 -0.43359,-0.23047 -0.60937,-0.40625 -0.17578,-0.17578 -0.3125,-0.37891 -0.40625,-0.60938 -0.0937,-0.23047 -0.14063,-0.46875 -0.14063,-0.71875 0,-0.25 0.0469,-0.48828 0.14063,-0.71875 0.0937,-0.22656 0.23047,-0.42968 0.40625,-0.60547 0.17578,-0.17578 0.3789,-0.3125 0.60937,-0.41015 0.23047,-0.0937 0.46875,-0.14063 0.71875,-0.14063 0.2461,0 0.48828,0.0469 0.71875,0.14063 0.22657,0.0976 0.42969,0.23437 0.60547,0.41015 0.17578,0.17579 0.3125,0.37891 0.40625,0.60547 0.0977,0.23047 0.14453,0.46875 0.14453,0.71875 z m 7.40235,0 c 0,0.25 -0.0469,0.48828 -0.14453,0.71875 -0.0937,0.23047 -0.23047,0.4336 -0.40625,0.60938 -0.17579,0.17578 -0.37891,0.30859 -0.60547,0.40625 -0.23047,0.0937 -0.47266,0.14062 -0.71875,0.14062 -0.25,0 -0.48828,-0.0469 -0.71875,-0.14062 -0.23047,-0.0977 -0.4336,-0.23047 -0.60938,-0.40625 -0.17578,-0.17578 -0.3125,-0.37891 -0.40625,-0.60938 -0.0937,-0.23047 -0.14062,-0.46875 -0.14062,-0.71875 0,-0.25 0.0469,-0.48828 0.14062,-0.71875 0.0937,-0.22656 0.23047,-0.42968 0.40625,-0.60547 0.17578,-0.17578 0.37891,-0.3125 0.60938,-0.41015 0.23047,-0.0937 0.46875,-0.14063 0.71875,-0.14063 0.24609,0 0.48828,0.0469 0.71875,0.14063 0.22656,0.0976 0.42968,0.23437 0.60547,0.41015 0.17578,0.17579 0.3125,0.37891 0.40625,0.60547 0.0977,0.23047 0.14453,0.46875 0.14453,0.71875 z m 7.40234,0 c 0,0.25 -0.0469,0.48828 -0.14453,0.71875 -0.0937,0.23047 -0.23047,0.4336 -0.40625,0.60938 -0.17578,0.17578 -0.37891,0.30859 -0.60547,0.40625 -0.23047,0.0937 -0.47266,0.14062 -0.71875,0.14062 -0.25,0 -0.48828,-0.0469 -0.71875,-0.14062 -0.23047,-0.0977 -0.43359,-0.23047 -0.60937,-0.40625 -0.17579,-0.17578 -0.3125,-0.37891 -0.40625,-0.60938 -0.0937,-0.23047 -0.14063,-0.46875 -0.14063,-0.71875 0,-0.25 0.0469,-0.48828 0.14063,-0.71875 0.0937,-0.22656 0.23046,-0.42968 0.40625,-0.60547 0.17578,-0.17578 0.3789,-0.3125 0.60937,-0.41015 0.23047,-0.0937 0.46875,-0.14063 0.71875,-0.14063 0.24609,0 0.48828,0.0469 0.71875,0.14063 0.22656,0.0976 0.42969,0.23437 0.60547,0.41015 0.17578,0.17579 0.3125,0.37891 0.40625,0.60547 0.0977,0.23047 0.14453,0.46875 0.14453,0.71875 z m 7.40234,0 c 0,0.25 -0.0469,0.48828 -0.14453,0.71875 -0.0937,0.23047 -0.23047,0.4336 -0.40625,0.60938 -0.17578,0.17578 -0.3789,0.30859 -0.60547,0.40625 -0.23046,0.0937 -0.47265,0.14062 -0.71875,0.14062 -0.25,0 -0.48828,-0.0469 -0.71875,-0.14062 -0.23046,-0.0977 -0.43359,-0.23047 -0.60937,-0.40625 -0.17578,-0.17578 -0.3125,-0.37891 -0.40625,-0.60938 -0.0937,-0.23047 -0.14063,-0.46875 -0.14063,-0.71875 0,-0.25 0.0469,-0.48828 0.14063,-0.71875 0.0937,-0.22656 0.23047,-0.42968 0.40625,-0.60547 0.17578,-0.17578 0.37891,-0.3125 0.60937,-0.41015 0.23047,-0.0937 0.46875,-0.14063 0.71875,-0.14063 0.2461,0 0.48829,0.0469 0.71875,0.14063 0.22657,0.0976 0.42969,0.23437 0.60547,0.41015 0.17578,0.17579 0.3125,0.37891 0.40625,0.60547 0.0977,0.23047 0.14453,0.46875 0.14453,0.71875 z m 7.40235,0 c 0,0.25 -0.0469,0.48828 -0.14453,0.71875 -0.0937,0.23047 -0.23047,0.4336 -0.40625,0.60938 -0.17578,0.17578 -0.37891,0.30859 -0.60547,0.40625 -0.23047,0.0937 -0.47266,0.14062 -0.71875,0.14062 -0.25,0 -0.48828,-0.0469 -0.71875,-0.14062 -0.23047,-0.0977 -0.4336,-0.23047 -0.60938,-0.40625 -0.17578,-0.17578 -0.3125,-0.37891 -0.40625,-0.60938 -0.0937,-0.23047 -0.14062,-0.46875 -0.14062,-0.71875 0,-0.25 0.0469,-0.48828 0.14062,-0.71875 0.0937,-0.22656 0.23047,-0.42968 0.40625,-0.60547 0.17578,-0.17578 0.37891,-0.3125 0.60938,-0.41015 0.23047,-0.0937 0.46875,-0.14063 0.71875,-0.14063 0.24609,0 0.48828,0.0469 0.71875,0.14063 0.22656,0.0976 0.42969,0.23437 0.60547,0.41015 0.17578,0.17579 0.3125,0.37891 0.40625,0.60547 0.0977,0.23047 0.14453,0.46875 0.14453,0.71875 z m 7.40234,0 c 0,0.25 -0.0469,0.48828 -0.14453,0.71875 -0.0937,0.23047 -0.23047,0.4336 -0.40625,0.60938 -0.17578,0.17578 -0.37891,0.30859 -0.60547,0.40625 -0.23047,0.0937 -0.47265,0.14062 -0.71875,0.14062 -0.25,0 -0.48828,-0.0469 -0.71875,-0.14062 -0.23047,-0.0977 -0.43359,-0.23047 -0.60937,-0.40625 -0.17578,-0.17578 -0.3125,-0.37891 -0.40625,-0.60938 -0.0937,-0.23047 -0.14063,-0.46875 -0.14063,-0.71875 0,-0.25 0.0469,-0.48828 0.14063,-0.71875 0.0937,-0.22656 0.23047,-0.42968 0.40625,-0.60547 0.17578,-0.17578 0.3789,-0.3125 0.60937,-0.41015 0.23047,-0.0937 0.46875,-0.14063 0.71875,-0.14063 0.2461,0 0.48828,0.0469 0.71875,0.14063 0.22656,0.0976 0.42969,0.23437 0.60547,0.41015 0.17578,0.17579 0.3125,0.37891 0.40625,0.60547 0.0977,0.23047 0.14453,0.46875 0.14453,0.71875 z m 7.40235,0 c 0,0.25 -0.0469,0.48828 -0.14454,0.71875 -0.0937,0.23047 -0.23046,0.4336 -0.40625,0.60938 -0.17578,0.17578 -0.3789,0.30859 -0.60937,0.40625 -0.22656,0.0937 -0.46875,0.14062 -0.71484,0.14062 -0.25,0 -0.48829,-0.0469 -0.71875,-0.14062 -0.23047,-0.0977 -0.4336,-0.23047 -0.60938,-0.40625 -0.17578,-0.17578 -0.3125,-0.37891 -0.40625,-0.60938 -0.0937,-0.23047 -0.14453,-0.46875 -0.14453,-0.71875 0,-0.25 0.0508,-0.48828 0.14453,-0.71875 0.0937,-0.22656 0.23047,-0.42968 0.40625,-0.60547 0.17578,-0.17578 0.37891,-0.3125 0.60938,-0.41015 0.23046,-0.0937 0.46875,-0.14063 0.71875,-0.14063 0.24609,0 0.48828,0.0469 0.71484,0.14063 0.23047,0.0976 0.43359,0.23437 0.60937,0.41015 0.17579,0.17579 0.3125,0.37891 0.40625,0.60547 0.0977,0.23047 0.14454,0.46875 0.14454,0.71875 z m 7.40234,0 c 0,0.25 -0.0469,0.48828 -0.14453,0.71875 -0.0937,0.23047 -0.23047,0.4336 -0.40625,0.60938 -0.17578,0.17578 -0.37891,0.30859 -0.60938,0.40625 -0.22656,0.0937 -0.46875,0.14062 -0.71484,0.14062 -0.25,0 -0.48828,-0.0469 -0.71875,-0.14062 -0.23047,-0.0977 -0.43359,-0.23047 -0.60938,-0.40625 -0.17578,-0.17578 -0.3125,-0.37891 -0.40625,-0.60938 -0.0937,-0.23047 -0.14453,-0.46875 -0.14453,-0.71875 0,-0.25 0.0508,-0.48828 0.14453,-0.71875 0.0937,-0.22656 0.23047,-0.42968 0.40625,-0.60547 0.17579,-0.17578 0.37891,-0.3125 0.60938,-0.41015 0.23047,-0.0937 0.46875,-0.14063 0.71875,-0.14063 0.24609,0 0.48828,0.0469 0.71484,0.14063 0.23047,0.0976 0.4336,0.23437 0.60938,0.41015 0.17578,0.17579 0.3125,0.37891 0.40625,0.60547 0.0977,0.23047 0.14453,0.46875 0.14453,0.71875 z m 7.40234,0 c 0,0.25 -0.0469,0.48828 -0.14453,0.71875 -0.0937,0.23047 -0.23047,0.4336 -0.40625,0.60938 -0.17578,0.17578 -0.3789,0.30859 -0.60937,0.40625 -0.22657,0.0937 -0.46875,0.14062 -0.71485,0.14062 -0.25,0 -0.48828,-0.0469 -0.71875,-0.14062 -0.23047,-0.0977 -0.43359,-0.23047 -0.60937,-0.40625 -0.17578,-0.17578 -0.3125,-0.37891 -0.40625,-0.60938 -0.0937,-0.23047 -0.14453,-0.46875 -0.14453,-0.71875 0,-0.25 0.0508,-0.48828 0.14453,-0.71875 0.0937,-0.22656 0.23047,-0.42968 0.40625,-0.60547 0.17578,-0.17578 0.3789,-0.3125 0.60937,-0.41015 0.23047,-0.0937 0.46875,-0.14063 0.71875,-0.14063 0.2461,0 0.48828,0.0469 0.71485,0.14063 0.23047,0.0976 0.43359,0.23437 0.60937,0.41015 0.17578,0.17579 0.3125,0.37891 0.40625,0.60547 0.0977,0.23047 0.14453,0.46875 0.14453,0.71875 z m 7.40235,0 c 0,0.25 -0.0469,0.48828 -0.14453,0.71875 -0.0937,0.23047 -0.23047,0.4336 -0.40625,0.60938 -0.17579,0.17578 -0.37891,0.30859 -0.60938,0.40625 -0.22656,0.0937 -0.46875,0.14062 -0.71484,0.14062 -0.25,0 -0.48828,-0.0469 -0.71875,-0.14062 -0.23047,-0.0977 -0.4336,-0.23047 -0.60938,-0.40625 -0.17578,-0.17578 -0.3125,-0.37891 -0.40625,-0.60938 -0.0937,-0.23047 -0.14453,-0.46875 -0.14453,-0.71875 0,-0.25 0.0508,-0.48828 0.14453,-0.71875 0.0937,-0.22656 0.23047,-0.42968 0.40625,-0.60547 0.17578,-0.17578 0.37891,-0.3125 0.60938,-0.41015 0.23047,-0.0937 0.46875,-0.14063 0.71875,-0.14063 0.24609,0 0.48828,0.0469 0.71484,0.14063 0.23047,0.0976 0.43359,0.23437 0.60938,0.41015 0.17578,0.17579 0.3125,0.37891 0.40625,0.60547 0.0976,0.23047 0.14453,0.46875 0.14453,0.71875 z m 7.40234,0 c 0,0.25 -0.0469,0.48828 -0.14453,0.71875 -0.0937,0.23047 -0.23047,0.4336 -0.40625,0.60938 -0.17578,0.17578 -0.37891,0.30859 -0.60938,0.40625 -0.22656,0.0937 -0.46875,0.14062 -0.71484,0.14062 -0.25,0 -0.48828,-0.0469 -0.71875,-0.14062 -0.23047,-0.0977 -0.43359,-0.23047 -0.60937,-0.40625 -0.17579,-0.17578 -0.3125,-0.37891 -0.40625,-0.60938 -0.0937,-0.23047 -0.14454,-0.46875 -0.14454,-0.71875 0,-0.25 0.0508,-0.48828 0.14454,-0.71875 0.0937,-0.22656 0.23046,-0.42968 0.40625,-0.60547 0.17578,-0.17578 0.3789,-0.3125 0.60937,-0.41015 0.23047,-0.0937 0.46875,-0.14063 0.71875,-0.14063 0.24609,0 0.48828,0.0469 0.71484,0.14063 0.23047,0.0976 0.4336,0.23437 0.60938,0.41015 0.17578,0.17579 0.3125,0.37891 0.40625,0.60547 0.0977,0.23047 0.14453,0.46875 0.14453,0.71875 z m 7.40234,0 c 0,0.25 -0.0469,0.48828 -0.14453,0.71875 -0.0937,0.23047 -0.23047,0.4336 -0.40625,0.60938 -0.17578,0.17578 -0.3789,0.30859 -0.60937,0.40625 -0.22656,0.0937 -0.46875,0.14062 -0.71485,0.14062 -0.25,0 -0.48828,-0.0469 -0.71875,-0.14062 -0.23046,-0.0977 -0.43359,-0.23047 -0.60937,-0.40625 -0.17578,-0.17578 -0.3125,-0.37891 -0.40625,-0.60938 -0.0937,-0.23047 -0.14453,-0.46875 -0.14453,-0.71875 0,-0.25 0.0508,-0.48828 0.14453,-0.71875 0.0937,-0.22656 0.23047,-0.42968 0.40625,-0.60547 0.17578,-0.17578 0.37891,-0.3125 0.60937,-0.41015 0.23047,-0.0937 0.46875,-0.14063 0.71875,-0.14063 0.2461,0 0.48829,0.0469 0.71485,0.14063 0.23047,0.0976 0.43359,0.23437 0.60937,0.41015 0.17578,0.17579 0.3125,0.37891 0.40625,0.60547 0.0977,0.23047 0.14453,0.46875 0.14453,0.71875 z m 7.40235,0 c 0,0.25 -0.0469,0.48828 -0.14453,0.71875 -0.0937,0.23047 -0.23047,0.4336 -0.40625,0.60938 -0.17578,0.17578 -0.37891,0.30859 -0.60938,0.40625 -0.22656,0.0937 -0.46875,0.14062 -0.71484,0.14062 -0.25,0 -0.48828,-0.0469 -0.71875,-0.14062 -0.23047,-0.0977 -0.4336,-0.23047 -0.60938,-0.40625 -0.17578,-0.17578 -0.3125,-0.37891 -0.40625,-0.60938 -0.0937,-0.23047 -0.14453,-0.46875 -0.14453,-0.71875 0,-0.25 0.0508,-0.48828 0.14453,-0.71875 0.0937,-0.22656 0.23047,-0.42968 0.40625,-0.60547 0.17578,-0.17578 0.37891,-0.3125 0.60938,-0.41015 0.23047,-0.0937 0.46875,-0.14063 0.71875,-0.14063 0.24609,0 0.48828,0.0469 0.71484,0.14063 0.23047,0.0976 0.4336,0.23437 0.60938,0.41015 0.17578,0.17579 0.3125,0.37891 0.40625,0.60547 0.0976,0.23047 0.14453,0.46875 0.14453,0.71875 z m 7.40234,0 c 0,0.25 -0.0469,0.48828 -0.14453,0.71875 -0.0937,0.23047 -0.23047,0.4336 -0.40625,0.60938 -0.17578,0.17578 -0.37891,0.30859 -0.60937,0.40625 -0.22657,0.0937 -0.46875,0.14062 -0.71485,0.14062 -0.25,0 -0.48828,-0.0469 -0.71875,-0.14062 -0.23047,-0.0977 -0.43359,-0.23047 -0.60937,-0.40625 -0.17578,-0.17578 -0.3125,-0.37891 -0.40625,-0.60938 -0.0937,-0.23047 -0.14453,-0.46875 -0.14453,-0.71875 0,-0.25 0.0508,-0.48828 0.14453,-0.71875 0.0937,-0.22656 0.23047,-0.42968 0.40625,-0.60547 0.17578,-0.17578 0.3789,-0.3125 0.60937,-0.41015 0.23047,-0.0937 0.46875,-0.14063 0.71875,-0.14063 0.2461,0 0.48828,0.0469 0.71485,0.14063 0.23046,0.0976 0.43359,0.23437 0.60937,0.41015 0.17578,0.17579 0.3125,0.37891 0.40625,0.60547 0.0977,0.23047 0.14453,0.46875 0.14453,0.71875 z m 7.40235,0 c 0,0.25 -0.0469,0.48828 -0.14454,0.71875 -0.0937,0.23047 -0.23046,0.4336 -0.40625,0.60938 -0.17578,0.17578 -0.3789,0.30859 -0.60937,0.40625 -0.22656,0.0937 -0.46875,0.14062 -0.71484,0.14062 -0.25,0 -0.48829,-0.0469 -0.71875,-0.14062 -0.23047,-0.0977 -0.4336,-0.23047 -0.60938,-0.40625 -0.17578,-0.17578 -0.3125,-0.37891 -0.40625,-0.60938 -0.0937,-0.23047 -0.14453,-0.46875 -0.14453,-0.71875 0,-0.25 0.0508,-0.48828 0.14453,-0.71875 0.0937,-0.22656 0.23047,-0.42968 0.40625,-0.60547 0.17578,-0.17578 0.37891,-0.3125 0.60938,-0.41015 0.23046,-0.0937 0.46875,-0.14063 0.71875,-0.14063 0.24609,0 0.48828,0.0469 0.71484,0.14063 0.23047,0.0976 0.43359,0.23437 0.60937,0.41015 0.17579,0.17579 0.3125,0.37891 0.40625,0.60547 0.0977,0.23047 0.14454,0.46875 0.14454,0.71875 z m 7.40234,0 c 0,0.25 -0.0469,0.48828 -0.14453,0.71875 -0.0937,0.23047 -0.23047,0.4336 -0.40625,0.60938 -0.17578,0.17578 -0.37891,0.30859 -0.60938,0.40625 -0.22656,0.0937 -0.46875,0.14062 -0.71484,0.14062 -0.25,0 -0.48828,-0.0469 -0.71875,-0.14062 -0.23047,-0.0977 -0.43359,-0.23047 -0.60938,-0.40625 -0.17578,-0.17578 -0.3125,-0.37891 -0.40625,-0.60938 -0.0937,-0.23047 -0.14453,-0.46875 -0.14453,-0.71875 0,-0.25 0.0508,-0.48828 0.14453,-0.71875 0.0937,-0.22656 0.23047,-0.42968 0.40625,-0.60547 0.17579,-0.17578 0.37891,-0.3125 0.60938,-0.41015 0.23047,-0.0937 0.46875,-0.14063 0.71875,-0.14063 0.24609,0 0.48828,0.0469 0.71484,0.14063 0.23047,0.0976 0.4336,0.23437 0.60938,0.41015 0.17578,0.17579 0.3125,0.37891 0.40625,0.60547 0.0976,0.23047 0.14453,0.46875 0.14453,0.71875 z m 7.40234,0 c 0,0.25 -0.0469,0.48828 -0.14453,0.71875 -0.0937,0.23047 -0.23047,0.4336 -0.40625,0.60938 -0.17578,0.17578 -0.3789,0.30859 -0.60937,0.40625 -0.22657,0.0937 -0.46875,0.14062 -0.71485,0.14062 -0.25,0 -0.48828,-0.0469 -0.71875,-0.14062 -0.23047,-0.0977 -0.43359,-0.23047 -0.60937,-0.40625 -0.17578,-0.17578 -0.3125,-0.37891 -0.40625,-0.60938 -0.0937,-0.23047 -0.14453,-0.46875 -0.14453,-0.71875 0,-0.25 0.0508,-0.48828 0.14453,-0.71875 0.0937,-0.22656 0.23047,-0.42968 0.40625,-0.60547 0.17578,-0.17578 0.3789,-0.3125 0.60937,-0.41015 0.23047,-0.0937 0.46875,-0.14063 0.71875,-0.14063 0.2461,0 0.48828,0.0469 0.71485,0.14063 0.23047,0.0976 0.43359,0.23437 0.60937,0.41015 0.17578,0.17579 0.3125,0.37891 0.40625,0.60547 0.0977,0.23047 0.14453,0.46875 0.14453,0.71875 z m 7.40235,0 c 0,0.25 -0.0469,0.48828 -0.14453,0.71875 -0.0937,0.23047 -0.23047,0.4336 -0.40625,0.60938 -0.17579,0.17578 -0.37891,0.30859 -0.60938,0.40625 -0.22656,0.0937 -0.46875,0.14062 -0.71484,0.14062 -0.25,0 -0.48828,-0.0469 -0.71875,-0.14062 -0.23047,-0.0977 -0.4336,-0.23047 -0.60938,-0.40625 -0.17578,-0.17578 -0.3125,-0.37891 -0.40625,-0.60938 -0.0937,-0.23047 -0.14453,-0.46875 -0.14453,-0.71875 0,-0.25 0.0508,-0.48828 0.14453,-0.71875 0.0937,-0.22656 0.23047,-0.42968 0.40625,-0.60547 0.17578,-0.17578 0.37891,-0.3125 0.60938,-0.41015 0.23047,-0.0937 0.46875,-0.14063 0.71875,-0.14063 0.24609,0 0.48828,0.0469 0.71484,0.14063 0.23047,0.0976 0.43359,0.23437 0.60938,0.41015 0.17578,0.17579 0.3125,0.37891 0.40625,0.60547 0.0976,0.23047 0.14453,0.46875 0.14453,0.71875 z m 7.40234,0 c 0,0.25 -0.0469,0.48828 -0.14453,0.71875 -0.0937,0.23047 -0.23047,0.4336 -0.40625,0.60938 -0.17578,0.17578 -0.37891,0.30859 -0.60938,0.40625 -0.23046,0.0937 -0.46875,0.14062 -0.71484,0.14062 -0.25,0 -0.48828,-0.0469 -0.71875,-0.14062 -0.23047,-0.0977 -0.43359,-0.23047 -0.60937,-0.40625 -0.17579,-0.17578 -0.3125,-0.37891 -0.40625,-0.60938 -0.0937,-0.23047 -0.14454,-0.46875 -0.14454,-0.71875 0,-0.25 0.0508,-0.48828 0.14454,-0.71875 0.0937,-0.22656 0.23046,-0.42968 0.40625,-0.60547 0.17578,-0.17578 0.3789,-0.3125 0.60937,-0.41015 0.23047,-0.0937 0.46875,-0.14063 0.71875,-0.14063 0.24609,0 0.48438,0.0469 0.71484,0.14063 0.23047,0.0976 0.4336,0.23437 0.60938,0.41015 0.17578,0.17579 0.3125,0.37891 0.40625,0.60547 0.0977,0.23047 0.14453,0.46875 0.14453,0.71875 z m 7.40234,0 c 0,0.25 -0.0469,0.48828 -0.14453,0.71875 -0.0937,0.23047 -0.23047,0.4336 -0.40625,0.60938 -0.17578,0.17578 -0.3789,0.30859 -0.60937,0.40625 -0.23047,0.0937 -0.46875,0.14062 -0.71485,0.14062 -0.25,0 -0.48828,-0.0469 -0.71875,-0.14062 -0.23046,-0.0977 -0.43359,-0.23047 -0.60937,-0.40625 -0.17578,-0.17578 -0.3125,-0.37891 -0.40625,-0.60938 -0.0977,-0.23047 -0.14453,-0.46875 -0.14453,-0.71875 0,-0.25 0.0469,-0.48828 0.14453,-0.71875 0.0937,-0.22656 0.23047,-0.42968 0.40625,-0.60547 0.17578,-0.17578 0.37891,-0.3125 0.60937,-0.41015 0.23047,-0.0937 0.46875,-0.14063 0.71875,-0.14063 0.2461,0 0.48438,0.0469 0.71485,0.14063 0.23047,0.0976 0.43359,0.23437 0.60937,0.41015 0.17578,0.17579 0.3125,0.37891 0.40625,0.60547 0.0977,0.23047 0.14453,0.46875 0.14453,0.71875 z m 7.40235,0 c 0,0.25 -0.0469,0.48828 -0.14453,0.71875 -0.0937,0.23047 -0.23047,0.4336 -0.40625,0.60938 -0.17578,0.17578 -0.37891,0.30859 -0.60938,0.40625 -0.23047,0.0937 -0.46875,0.14062 -0.71484,0.14062 -0.25,0 -0.48828,-0.0469 -0.71875,-0.14062 -0.23047,-0.0977 -0.4336,-0.23047 -0.60938,-0.40625 -0.17578,-0.17578 -0.3125,-0.37891 -0.40625,-0.60938 -0.0976,-0.23047 -0.14453,-0.46875 -0.14453,-0.71875 0,-0.25 0.0469,-0.48828 0.14453,-0.71875 0.0937,-0.22656 0.23047,-0.42968 0.40625,-0.60547 0.17578,-0.17578 0.37891,-0.3125 0.60938,-0.41015 0.23047,-0.0937 0.46875,-0.14063 0.71875,-0.14063 0.24609,0 0.48437,0.0469 0.71484,0.14063 0.23047,0.0976 0.4336,0.23437 0.60938,0.41015 0.17578,0.17579 0.3125,0.37891 0.40625,0.60547 0.0976,0.23047 0.14453,0.46875 0.14453,0.71875 z m 7.40234,0 c 0,0.25 -0.0469,0.48828 -0.14453,0.71875 -0.0937,0.23047 -0.23047,0.4336 -0.40625,0.60938 -0.17578,0.17578 -0.37891,0.30859 -0.60937,0.40625 -0.23047,0.0937 -0.46875,0.14062 -0.71485,0.14062 -0.25,0 -0.48828,-0.0469 -0.71875,-0.14062 -0.23047,-0.0977 -0.43359,-0.23047 -0.60937,-0.40625 -0.17578,-0.17578 -0.3125,-0.37891 -0.40625,-0.60938 -0.0977,-0.23047 -0.14453,-0.46875 -0.14453,-0.71875 0,-0.25 0.0469,-0.48828 0.14453,-0.71875 0.0937,-0.22656 0.23047,-0.42968 0.40625,-0.60547 0.17578,-0.17578 0.3789,-0.3125 0.60937,-0.41015 0.23047,-0.0937 0.46875,-0.14063 0.71875,-0.14063 0.2461,0 0.48438,0.0469 0.71485,0.14063 0.23046,0.0976 0.43359,0.23437 0.60937,0.41015 0.17578,0.17579 0.3125,0.37891 0.40625,0.60547 0.0977,0.23047 0.14453,0.46875 0.14453,0.71875 z m 7.40235,0 c 0,0.25 -0.0469,0.48828 -0.14454,0.71875 -0.0937,0.23047 -0.23046,0.4336 -0.40625,0.60938 -0.17578,0.17578 -0.3789,0.30859 -0.60937,0.40625 -0.23047,0.0937 -0.46875,0.14062 -0.71875,0.14062 -0.24609,0 -0.48438,-0.0469 -0.71484,-0.14062 -0.23047,-0.0977 -0.4336,-0.23047 -0.60938,-0.40625 -0.17578,-0.17578 -0.3125,-0.37891 -0.40625,-0.60938 -0.0977,-0.23047 -0.14453,-0.46875 -0.14453,-0.71875 0,-0.25 0.0469,-0.48828 0.14453,-0.71875 0.0937,-0.22656 0.23047,-0.42968 0.40625,-0.60547 0.17578,-0.17578 0.37891,-0.3125 0.60938,-0.41015 0.23046,-0.0937 0.46875,-0.14063 0.71484,-0.14063 0.25,0 0.48828,0.0469 0.71875,0.14063 0.23047,0.0976 0.43359,0.23437 0.60937,0.41015 0.17579,0.17579 0.3125,0.37891 0.40625,0.60547 0.0977,0.23047 0.14454,0.46875 0.14454,0.71875 z m 7.40234,0 c 0,0.25 -0.0469,0.48828 -0.14453,0.71875 -0.0937,0.23047 -0.23047,0.4336 -0.40625,0.60938 -0.17578,0.17578 -0.37891,0.30859 -0.60938,0.40625 -0.23047,0.0937 -0.46875,0.14062 -0.71875,0.14062 -0.24609,0 -0.48437,-0.0469 -0.71484,-0.14062 -0.23047,-0.0977 -0.43359,-0.23047 -0.60938,-0.40625 -0.17578,-0.17578 -0.3125,-0.37891 -0.40625,-0.60938 -0.0976,-0.23047 -0.14453,-0.46875 -0.14453,-0.71875 0,-0.25 0.0469,-0.48828 0.14453,-0.71875 0.0937,-0.22656 0.23047,-0.42968 0.40625,-0.60547 0.17579,-0.17578 0.37891,-0.3125 0.60938,-0.41015 0.23047,-0.0937 0.46875,-0.14063 0.71484,-0.14063 0.25,0 0.48828,0.0469 0.71875,0.14063 0.23047,0.0976 0.4336,0.23437 0.60938,0.41015 0.17578,0.17579 0.3125,0.37891 0.40625,0.60547 0.0976,0.23047 0.14453,0.46875 0.14453,0.71875 z m 7.40234,0 c 0,0.25 -0.0469,0.48828 -0.14453,0.71875 -0.0937,0.23047 -0.23047,0.4336 -0.40625,0.60938 -0.17578,0.17578 -0.3789,0.30859 -0.60937,0.40625 -0.23047,0.0937 -0.46875,0.14062 -0.71875,0.14062 -0.2461,0 -0.48438,-0.0469 -0.71485,-0.14062 -0.23047,-0.0977 -0.43359,-0.23047 -0.60937,-0.40625 -0.17578,-0.17578 -0.3125,-0.37891 -0.40625,-0.60938 -0.0977,-0.23047 -0.14453,-0.46875 -0.14453,-0.71875 0,-0.25 0.0469,-0.48828 0.14453,-0.71875 0.0937,-0.22656 0.23047,-0.42968 0.40625,-0.60547 0.17578,-0.17578 0.3789,-0.3125 0.60937,-0.41015 0.23047,-0.0937 0.46875,-0.14063 0.71485,-0.14063 0.25,0 0.48828,0.0469 0.71875,0.14063 0.23047,0.0976 0.43359,0.23437 0.60937,0.41015 0.17578,0.17579 0.3125,0.37891 0.40625,0.60547 0.0977,0.23047 0.14453,0.46875 0.14453,0.71875 z m 7.40235,0 c 0,0.25 -0.0508,0.48828 -0.14453,0.71875 -0.0937,0.23047 -0.23047,0.4336 -0.40625,0.60938 -0.17579,0.17578 -0.37891,0.30859 -0.60938,0.40625 -0.23047,0.0937 -0.46875,0.14062 -0.71875,0.14062 -0.24609,0 -0.48437,-0.0469 -0.71484,-0.14062 -0.23047,-0.0977 -0.4336,-0.23047 -0.60938,-0.40625 -0.17578,-0.17578 -0.3125,-0.37891 -0.40625,-0.60938 -0.0976,-0.23047 -0.14453,-0.46875 -0.14453,-0.71875 0,-0.25 0.0469,-0.48828 0.14453,-0.71875 0.0937,-0.22656 0.23047,-0.42968 0.40625,-0.60547 0.17578,-0.17578 0.37891,-0.3125 0.60938,-0.41015 0.23047,-0.0937 0.46875,-0.14063 0.71484,-0.14063 0.25,0 0.48828,0.0469 0.71875,0.14063 0.23047,0.0976 0.43359,0.23437 0.60938,0.41015 0.17578,0.17579 0.3125,0.37891 0.40625,0.60547 0.0937,0.23047 0.14453,0.46875 0.14453,0.71875 z m 7.40234,0 c 0,0.25 -0.0508,0.48828 -0.14453,0.71875 -0.0937,0.23047 -0.23047,0.4336 -0.40625,0.60938 -0.17578,0.17578 -0.37891,0.30859 -0.60938,0.40625 -0.23046,0.0937 -0.46875,0.14062 -0.71875,0.14062 -0.24609,0 -0.48828,-0.0469 -0.71484,-0.14062 -0.23047,-0.0977 -0.43359,-0.23047 -0.60937,-0.40625 -0.17579,-0.17578 -0.3125,-0.37891 -0.40625,-0.60938 -0.0977,-0.23047 -0.14454,-0.46875 -0.14454,-0.71875 0,-0.25 0.0469,-0.48828 0.14454,-0.71875 0.0937,-0.22656 0.23046,-0.42968 0.40625,-0.60547 0.17578,-0.17578 0.3789,-0.3125 0.60937,-0.41015 0.22656,-0.0937 0.46875,-0.14063 0.71484,-0.14063 0.25,0 0.48829,0.0469 0.71875,0.14063 0.23047,0.0976 0.4336,0.23437 0.60938,0.41015 0.17578,0.17579 0.3125,0.37891 0.40625,0.60547 0.0937,0.23047 0.14453,0.46875 0.14453,0.71875 z m 7.40234,0 c 0,0.25 -0.0508,0.48828 -0.14453,0.71875 -0.0937,0.23047 -0.23047,0.4336 -0.40625,0.60938 -0.17578,0.17578 -0.3789,0.30859 -0.60937,0.40625 -0.23047,0.0937 -0.46875,0.14062 -0.71875,0.14062 -0.2461,0 -0.48828,-0.0469 -0.71485,-0.14062 -0.23046,-0.0977 -0.43359,-0.23047 -0.60937,-0.40625 -0.17578,-0.17578 -0.3125,-0.37891 -0.40625,-0.60938 -0.0977,-0.23047 -0.14453,-0.46875 -0.14453,-0.71875 0,-0.25 0.0469,-0.48828 0.14453,-0.71875 0.0937,-0.22656 0.23047,-0.42968 0.40625,-0.60547 0.17578,-0.17578 0.37891,-0.3125 0.60937,-0.41015 0.22657,-0.0937 0.46875,-0.14063 0.71485,-0.14063 0.25,0 0.48828,0.0469 0.71875,0.14063 0.23047,0.0976 0.43359,0.23437 0.60937,0.41015 0.17578,0.17579 0.3125,0.37891 0.40625,0.60547 0.0937,0.23047 0.14453,0.46875 0.14453,0.71875 z m 7.40235,0 c 0,0.25 -0.0508,0.48828 -0.14453,0.71875 -0.0937,0.23047 -0.23047,0.4336 -0.40625,0.60938 -0.17578,0.17578 -0.37891,0.30859 -0.60938,0.40625 -0.23047,0.0937 -0.46875,0.14062 -0.71875,0.14062 -0.24609,0 -0.48828,-0.0469 -0.71484,-0.14062 -0.23047,-0.0977 -0.4336,-0.23047 -0.60938,-0.40625 -0.17578,-0.17578 -0.3125,-0.37891 -0.40625,-0.60938 -0.0976,-0.23047 -0.14453,-0.46875 -0.14453,-0.71875 0,-0.25 0.0469,-0.48828 0.14453,-0.71875 0.0937,-0.22656 0.23047,-0.42968 0.40625,-0.60547 0.17578,-0.17578 0.37891,-0.3125 0.60938,-0.41015 0.22656,-0.0937 0.46875,-0.14063 0.71484,-0.14063 0.25,0 0.48828,0.0469 0.71875,0.14063 0.23047,0.0976 0.4336,0.23437 0.60938,0.41015 0.17578,0.17579 0.3125,0.37891 0.40625,0.60547 0.0937,0.23047 0.14453,0.46875 0.14453,0.71875 z m 7.40234,0 c 0,0.25 -0.0508,0.48828 -0.14453,0.71875 -0.0937,0.23047 -0.23047,0.4336 -0.40625,0.60938 -0.17578,0.17578 -0.37891,0.30859 -0.60937,0.40625 -0.23047,0.0937 -0.46875,0.14062 -0.71875,0.14062 -0.2461,0 -0.48829,-0.0469 -0.71485,-0.14062 -0.23047,-0.0977 -0.43359,-0.23047 -0.60937,-0.40625 -0.17578,-0.17578 -0.3125,-0.37891 -0.40625,-0.60938 -0.0977,-0.23047 -0.14453,-0.46875 -0.14453,-0.71875 0,-0.25 0.0469,-0.48828 0.14453,-0.71875 0.0937,-0.22656 0.23047,-0.42968 0.40625,-0.60547 0.17578,-0.17578 0.3789,-0.3125 0.60937,-0.41015 0.22656,-0.0937 0.46875,-0.14063 0.71485,-0.14063 0.25,0 0.48828,0.0469 0.71875,0.14063 0.23046,0.0976 0.43359,0.23437 0.60937,0.41015 0.17578,0.17579 0.3125,0.37891 0.40625,0.60547 0.0937,0.23047 0.14453,0.46875 0.14453,0.71875 z m 7.40235,0 c 0,0.25 -0.0508,0.48828 -0.14454,0.71875 -0.0937,0.23047 -0.23046,0.4336 -0.40625,0.60938 -0.17578,0.17578 -0.3789,0.30859 -0.60937,0.40625 -0.23047,0.0937 -0.46875,0.14062 -0.71875,0.14062 -0.24609,0 -0.48828,-0.0469 -0.71484,-0.14062 -0.23047,-0.0977 -0.4336,-0.23047 -0.60938,-0.40625 -0.17578,-0.17578 -0.3125,-0.37891 -0.40625,-0.60938 -0.0977,-0.23047 -0.14453,-0.46875 -0.14453,-0.71875 0,-0.25 0.0469,-0.48828 0.14453,-0.71875 0.0937,-0.22656 0.23047,-0.42968 0.40625,-0.60547 0.17578,-0.17578 0.37891,-0.3125 0.60938,-0.41015 0.22656,-0.0937 0.46875,-0.14063 0.71484,-0.14063 0.25,0 0.48828,0.0469 0.71875,0.14063 0.23047,0.0976 0.43359,0.23437 0.60937,0.41015 0.17579,0.17579 0.3125,0.37891 0.40625,0.60547 0.0937,0.23047 0.14454,0.46875 0.14454,0.71875 z m 7.40234,0 c 0,0.25 -0.0508,0.48828 -0.14453,0.71875 -0.0937,0.23047 -0.23047,0.4336 -0.40625,0.60938 -0.17578,0.17578 -0.37891,0.30859 -0.60938,0.40625 -0.23047,0.0937 -0.46875,0.14062 -0.71875,0.14062 -0.24609,0 -0.48828,-0.0469 -0.71484,-0.14062 -0.23047,-0.0977 -0.43359,-0.23047 -0.60938,-0.40625 -0.17578,-0.17578 -0.3125,-0.37891 -0.40625,-0.60938 -0.0976,-0.23047 -0.14453,-0.46875 -0.14453,-0.71875 0,-0.25 0.0469,-0.48828 0.14453,-0.71875 0.0937,-0.22656 0.23047,-0.42968 0.40625,-0.60547 0.17579,-0.17578 0.37891,-0.3125 0.60938,-0.41015 0.22656,-0.0937 0.46875,-0.14063 0.71484,-0.14063 0.25,0 0.48828,0.0469 0.71875,0.14063 0.23047,0.0976 0.4336,0.23437 0.60938,0.41015 0.17578,0.17579 0.3125,0.37891 0.40625,0.60547 0.0937,0.23047 0.14453,0.46875 0.14453,0.71875 z m 7.40234,0 c 0,0.25 -0.0508,0.48828 -0.14453,0.71875 -0.0937,0.23047 -0.23047,0.4336 -0.40625,0.60938 -0.17578,0.17578 -0.3789,0.30859 -0.60937,0.40625 -0.23047,0.0937 -0.46875,0.14062 -0.71875,0.14062 -0.2461,0 -0.48828,-0.0469 -0.71485,-0.14062 -0.23047,-0.0977 -0.43359,-0.23047 -0.60937,-0.40625 -0.17578,-0.17578 -0.3125,-0.37891 -0.40625,-0.60938 -0.0977,-0.23047 -0.14453,-0.46875 -0.14453,-0.71875 0,-0.25 0.0469,-0.48828 0.14453,-0.71875 0.0937,-0.22656 0.23047,-0.42968 0.40625,-0.60547 0.17578,-0.17578 0.3789,-0.3125 0.60937,-0.41015 0.22657,-0.0937 0.46875,-0.14063 0.71485,-0.14063 0.25,0 0.48828,0.0469 0.71875,0.14063 0.23047,0.0976 0.43359,0.23437 0.60937,0.41015 0.17578,0.17579 0.3125,0.37891 0.40625,0.60547 0.0937,0.23047 0.14453,0.46875 0.14453,0.71875 z m 7.40235,0 c 0,0.25 -0.0508,0.48828 -0.14453,0.71875 -0.0937,0.23047 -0.23047,0.4336 -0.40625,0.60938 -0.17579,0.17578 -0.37891,0.30859 -0.60938,0.40625 -0.23047,0.0937 -0.46875,0.14062 -0.71875,0.14062 -0.24609,0 -0.48828,-0.0469 -0.71484,-0.14062 -0.23047,-0.0977 -0.4336,-0.23047 -0.60938,-0.40625 -0.17578,-0.17578 -0.3125,-0.37891 -0.40625,-0.60938 -0.0976,-0.23047 -0.14453,-0.46875 -0.14453,-0.71875 0,-0.25 0.0469,-0.48828 0.14453,-0.71875 0.0937,-0.22656 0.23047,-0.42968 0.40625,-0.60547 0.17578,-0.17578 0.37891,-0.3125 0.60938,-0.41015 0.22656,-0.0937 0.46875,-0.14063 0.71484,-0.14063 0.25,0 0.48828,0.0469 0.71875,0.14063 0.23047,0.0976 0.43359,0.23437 0.60938,0.41015 0.17578,0.17579 0.3125,0.37891 0.40625,0.60547 0.0937,0.23047 0.14453,0.46875 0.14453,0.71875 z m 0,0"
         id="path141" />
    </g>
    <g
       style="fill:#7d003f;fill-opacity:1"
       id="g171"
       transform="matrix(1.3333333,0,0,1.3333333,-102.03116,-370.04906)">
      <g
         id="use145"
         transform="translate(244.459,402.92535)">
        <path
           style="stroke:none"
           d="m 0.875,-6.28125 c 0,-2.132812 0.570312,-3.804688 1.71875,-5.015625 1.144531,-1.21875 2.628906,-1.828125 4.453125,-1.828125 1.1875,0 2.257813,0.289062 3.21875,0.859375 0.957031,0.5625 1.6875,1.355469 2.1875,2.375 0.5,1.023437 0.75,2.171875 0.75,3.453125 0,1.3125 -0.265625,2.484375 -0.796875,3.515625 -0.523438,1.03125 -1.265625,1.8125 -2.234375,2.34375 -0.96875,0.53125 -2.015625,0.796875 -3.140625,0.796875 -1.210938,0 -2.292969,-0.2890625 -3.25,-0.875 C 2.820312,-1.25 2.097656,-2.050781 1.609375,-3.0625 1.117188,-4.070312 0.875,-5.144531 0.875,-6.28125 Z M 2.625,-6.25 c 0,1.554688 0.414062,2.777344 1.25,3.671875 0.84375,0.898437 1.894531,1.34375 3.15625,1.34375 1.28125,0 2.332031,-0.453125 3.15625,-1.359375 0.832031,-0.90625 1.25,-2.1875 1.25,-3.84375 0,-1.050781 -0.179688,-1.96875 -0.53125,-2.75 -0.355469,-0.78125 -0.875,-1.382812 -1.5625,-1.8125 -0.679688,-0.4375 -1.4375,-0.65625 -2.28125,-0.65625 -1.210938,0 -2.25,0.417969 -3.125,1.25 C 3.0625,-9.582031 2.625,-8.195312 2.625,-6.25 Z m 0,0"
           id="path4354" />
      </g>
      <g
         id="use147"
         transform="translate(258.46667,402.92535)">
        <path
           style="stroke:none"
           d="M 1.171875,0 V -9.34375 H 2.59375 v 1.421875 c 0.363281,-0.664063 0.695312,-1.101563 1,-1.3125 0.3125,-0.207031 0.65625,-0.3125 1.03125,-0.3125 0.53125,0 1.070312,0.167969 1.625,0.5 l -0.546875,1.46875 c -0.386719,-0.226563 -0.773437,-0.34375 -1.15625,-0.34375 -0.355469,0 -0.671875,0.105469 -0.953125,0.3125 -0.273438,0.210937 -0.464844,0.5 -0.578125,0.875 C 2.835938,-6.171875 2.75,-5.554688 2.75,-4.890625 V 0 Z m 0,0"
           id="path4326" />
      </g>
      <g
         id="use149"
         transform="translate(264.46368,402.92535)">
        <path
           style="stroke:none"
           d="m 1.203125,-11.078125 v -1.8125 H 2.78125 v 1.8125 z M 1.203125,0 V -9.34375 H 2.78125 V 0 Z m 0,0"
           id="path4342" />
      </g>
      <g
         id="use151"
         transform="translate(268.46463,402.92535)">
        <path
           style="stroke:none"
           d="M 0.890625,0.78125 2.4375,1 C 2.5,1.476562 2.675781,1.828125 2.96875,2.046875 c 0.394531,0.289063 0.929688,0.4375 1.609375,0.4375 0.738281,0 1.304687,-0.152344 1.703125,-0.453125 0.394531,-0.292969 0.664062,-0.699219 0.8125,-1.21875 0.082031,-0.324219 0.117188,-1 0.109375,-2.03125 C 6.515625,-0.40625 5.65625,0 4.625,0 3.332031,0 2.332031,-0.460938 1.625,-1.390625 0.925781,-2.316406 0.578125,-3.425781 0.578125,-4.71875 c 0,-0.894531 0.160156,-1.71875 0.484375,-2.46875 0.320312,-0.757812 0.789062,-1.34375 1.40625,-1.75 0.613281,-0.40625 1.332031,-0.609375 2.15625,-0.609375 1.101562,0 2.015625,0.445313 2.734375,1.328125 v -1.125 H 8.8125 v 8.078125 c 0,1.457031 -0.152344,2.488281 -0.453125,3.09375 -0.292969,0.601563 -0.761719,1.082031 -1.40625,1.4375 -0.636719,0.351563 -1.421875,0.53125 -2.359375,0.53125 -1.117188,0 -2.015625,-0.257813 -2.703125,-0.765625 -0.6875,-0.5 -1.023437,-1.25 -1,-2.25 z m 1.3125,-5.625 c 0,1.230469 0.242187,2.125 0.734375,2.6875 0.488281,0.5625 1.097656,0.84375 1.828125,0.84375 0.726563,0 1.335937,-0.273438 1.828125,-0.828125 0.5,-0.5625 0.75,-1.441406 0.75,-2.640625 0,-1.144531 -0.257812,-2.007812 -0.765625,-2.59375 C 6.066406,-7.957031 5.453125,-8.25 4.734375,-8.25 4.035156,-8.25 3.4375,-7.960938 2.9375,-7.390625 2.445312,-6.816406 2.203125,-5.96875 2.203125,-4.84375 Z m 0,0"
           id="path4338" />
      </g>
      <g
         id="use153"
         transform="translate(278.48013,402.92535)">
        <path
           style="stroke:none"
           d="m 1.203125,-11.078125 v -1.8125 H 2.78125 v 1.8125 z M 1.203125,0 V -9.34375 H 2.78125 V 0 Z m 0,0"
           id="path4346" />
      </g>
      <g
         id="use155"
         transform="translate(282.48108,402.92535)">
        <path
           style="stroke:none"
           d="m 1.1875,0 v -9.34375 h 1.421875 v 1.328125 c 0.6875,-1.019531 1.675781,-1.53125 2.96875,-1.53125 0.570313,0 1.09375,0.101563 1.5625,0.296875 0.46875,0.199219 0.816406,0.464844 1.046875,0.796875 0.238281,0.324219 0.40625,0.714844 0.5,1.171875 C 8.75,-6.988281 8.78125,-6.476562 8.78125,-5.75 V 0 H 7.203125 v -5.6875 c 0,-0.644531 -0.0625,-1.125 -0.1875,-1.4375 -0.125,-0.320312 -0.34375,-0.578125 -0.65625,-0.765625 C 6.046875,-8.085938 5.675781,-8.1875 5.25,-8.1875 c -0.679688,0 -1.261719,0.21875 -1.75,0.65625 -0.492188,0.429688 -0.734375,1.234375 -0.734375,2.421875 V 0 Z m 0,0"
           id="path4314" />
      </g>
      <g
         id="use157"
         transform="translate(292.49661,402.92535)">
        <path
           style="stroke:none"
           d="m 7.28125,-1.15625 c -0.585938,0.5 -1.148438,0.855469 -1.6875,1.0625 -0.542969,0.207031 -1.125,0.3125 -1.75,0.3125 -1.023438,0 -1.808594,-0.25 -2.359375,-0.75 C 0.929688,-1.039062 0.65625,-1.6875 0.65625,-2.46875 c 0,-0.457031 0.101562,-0.875 0.3125,-1.25 0.207031,-0.375 0.476562,-0.675781 0.8125,-0.90625 0.332031,-0.226562 0.710938,-0.398438 1.140625,-0.515625 0.3125,-0.082031 0.78125,-0.164063 1.40625,-0.25 1.28125,-0.144531 2.222656,-0.320313 2.828125,-0.53125 0,-0.21875 0,-0.359375 0,-0.421875 0,-0.644531 -0.148438,-1.097656 -0.4375,-1.359375 C 6.3125,-8.066406 5.707031,-8.25 4.90625,-8.25 4.164062,-8.25 3.617188,-8.113281 3.265625,-7.84375 2.910156,-7.582031 2.644531,-7.125 2.46875,-6.46875 L 0.921875,-6.671875 C 1.066406,-7.335938 1.300781,-7.875 1.625,-8.28125 1.945312,-8.6875 2.410156,-9 3.015625,-9.21875 c 0.613281,-0.21875 1.320313,-0.328125 2.125,-0.328125 0.789063,0 1.4375,0.09375 1.9375,0.28125 0.5,0.1875 0.863281,0.421875 1.09375,0.703125 0.238281,0.28125 0.40625,0.640625 0.5,1.078125 C 8.722656,-7.210938 8.75,-6.726562 8.75,-6.03125 v 2.109375 c 0,1.480469 0.03125,2.417969 0.09375,2.8125 C 8.914062,-0.722656 9.050781,-0.351562 9.25,0 H 7.59375 C 7.4375,-0.332031 7.332031,-0.71875 7.28125,-1.15625 Z M 7.15625,-4.6875 C 6.582031,-4.457031 5.71875,-4.257812 4.5625,-4.09375 3.914062,-4 3.457031,-3.890625 3.1875,-3.765625 2.914062,-3.648438 2.707031,-3.476562 2.5625,-3.25 2.414062,-3.03125 2.34375,-2.78125 2.34375,-2.5 c 0,0.417969 0.15625,0.765625 0.46875,1.046875 0.320312,0.28125 0.789062,0.421875 1.40625,0.421875 0.613281,0 1.15625,-0.128906 1.625,-0.390625 C 6.320312,-1.691406 6.671875,-2.0625 6.890625,-2.53125 7.066406,-2.882812 7.15625,-3.410156 7.15625,-4.109375 Z m 0,0"
           id="path4302" />
      </g>
      <g
         id="use159"
         transform="translate(302.51215,402.92535)">
        <path
           style="stroke:none"
           d="M 1.15625,0 V -12.890625 H 2.734375 V 0 Z m 0,0"
           id="path4294" />
      </g>
      <g
         id="use161"
         transform="translate(306.51306,402.92535)">
        <path
           style="stroke:none"
           d=""
           id="path4290" />
      </g>
      <g
         id="use163"
         transform="translate(311.51645,402.92535)">
        <path
           style="stroke:none"
           d="M 2.90625,0 0.046875,-9.34375 H 1.6875 l 1.484375,5.390625 0.5625,2.015625 c 0.019531,-0.101562 0.179687,-0.75 0.484375,-1.9375 l 1.484375,-5.46875 h 1.625 l 1.390625,5.421875 0.46875,1.78125 0.546875,-1.796875 1.59375,-5.40625 H 12.875 L 9.953125,0 H 8.296875 L 6.8125,-5.59375 6.453125,-7.1875 4.5625,0 Z m 0,0"
           id="path4286" />
      </g>
      <g
         id="use165"
         transform="translate(324.5217,402.92535)">
        <path
           style="stroke:none"
           d="m 0.59375,-4.671875 c 0,-1.726563 0.484375,-3.007813 1.453125,-3.84375 0.800781,-0.6875 1.78125,-1.03125 2.9375,-1.03125 1.28125,0 2.328125,0.421875 3.140625,1.265625 0.8125,0.835938 1.21875,1.996094 1.21875,3.484375 0,1.199219 -0.183594,2.140625 -0.546875,2.828125 -0.355469,0.6875 -0.875,1.226562 -1.5625,1.609375 -0.6875,0.3828125 -1.4375,0.578125 -2.25,0.578125 -1.3125,0 -2.375,-0.421875 -3.1875,-1.265625 -0.804687,-0.84375 -1.203125,-2.050781 -1.203125,-3.625 z m 1.625,0 c 0,1.199219 0.257812,2.09375 0.78125,2.6875 0.53125,0.59375 1.191406,0.890625 1.984375,0.890625 0.78125,0 1.429687,-0.296875 1.953125,-0.890625 C 7.457031,-2.585938 7.71875,-3.5 7.71875,-4.71875 7.71875,-5.875 7.457031,-6.75 6.9375,-7.34375 6.414062,-7.945312 5.765625,-8.25 4.984375,-8.25 4.191406,-8.25 3.53125,-7.953125 3,-7.359375 c -0.523438,0.59375 -0.78125,1.492187 -0.78125,2.6875 z m 0,0"
           id="path4278" />
      </g>
      <g
         id="use167"
         transform="translate(334.5372,402.92535)">
        <path
           style="stroke:none"
           d="M 1.171875,0 V -9.34375 H 2.59375 v 1.421875 c 0.363281,-0.664063 0.695312,-1.101563 1,-1.3125 0.3125,-0.207031 0.65625,-0.3125 1.03125,-0.3125 0.53125,0 1.070312,0.167969 1.625,0.5 l -0.546875,1.46875 c -0.386719,-0.226563 -0.773437,-0.34375 -1.15625,-0.34375 -0.355469,0 -0.671875,0.105469 -0.953125,0.3125 -0.273438,0.210937 -0.464844,0.5 -0.578125,0.875 C 2.835938,-6.171875 2.75,-5.554688 2.75,-4.890625 V 0 Z m 0,0"
           id="path4330" />
      </g>
      <g
         id="use169"
         transform="translate(340.53421,402.92535)">
        <path
           style="stroke:none"
           d="M 7.25,0 V -1.171875 C 6.65625,-0.242188 5.785156,0.21875 4.640625,0.21875 c -0.75,0 -1.4375,-0.203125 -2.0625,-0.609375 C 1.953125,-0.804688 1.46875,-1.382812 1.125,-2.125 0.78125,-2.863281 0.609375,-3.707031 0.609375,-4.65625 c 0,-0.9375 0.15625,-1.785156 0.46875,-2.546875 0.3125,-0.757813 0.773437,-1.335937 1.390625,-1.734375 0.625,-0.40625 1.320312,-0.609375 2.09375,-0.609375 0.5625,0 1.0625,0.121094 1.5,0.359375 0.445312,0.230469 0.804688,0.539062 1.078125,0.921875 v -4.625 H 8.71875 V 0 Z m -5,-4.65625 c 0,1.1875 0.25,2.078125 0.75,2.671875 0.5,0.59375 1.09375,0.890625 1.78125,0.890625 0.695312,0 1.285156,-0.28125 1.765625,-0.84375 C 7.035156,-2.5 7.28125,-3.363281 7.28125,-4.53125 c 0,-1.28125 -0.25,-2.21875 -0.75,-2.8125 C 6.039062,-7.945312 5.4375,-8.25 4.71875,-8.25 4.007812,-8.25 3.421875,-7.957031 2.953125,-7.375 2.484375,-6.800781 2.25,-5.894531 2.25,-4.65625 Z m 0,0"
           id="path4274" />
      </g>
    </g>
    <g
       style="fill:#7d003f;fill-opacity:1"
       id="g175"
       transform="matrix(1.3333333,0,0,1.3333333,-102.03116,-370.04906)">
      <g
         id="use173"
         transform="translate(253.28745,451.69867)">
        <path
           style="stroke:none"
           d="m 4.671875,0 v -11.375 h -4.25 v -1.515625 h 10.21875 V -11.375 H 6.375 V 0 Z m 0,0"
           id="path4270" />
      </g>
    </g>
    <g
       style="fill:#7d003f;fill-opacity:1"
       id="g197"
       transform="matrix(1.3333333,0,0,1.3333333,-102.03116,-370.04906)">
      <g
         id="use177"
         transform="translate(263.61954,451.69867)">
        <path
           style="stroke:none"
           d="M 1.171875,0 V -9.34375 H 2.59375 v 1.421875 c 0.363281,-0.664063 0.695312,-1.101563 1,-1.3125 0.3125,-0.207031 0.65625,-0.3125 1.03125,-0.3125 0.53125,0 1.070312,0.167969 1.625,0.5 l -0.546875,1.46875 c -0.386719,-0.226563 -0.773437,-0.34375 -1.15625,-0.34375 -0.355469,0 -0.671875,0.105469 -0.953125,0.3125 -0.273438,0.210937 -0.464844,0.5 -0.578125,0.875 C 2.835938,-6.171875 2.75,-5.554688 2.75,-4.890625 V 0 Z m 0,0"
           id="path4334" />
      </g>
      <g
         id="use179"
         transform="translate(269.61655,451.69867)">
        <path
           style="stroke:none"
           d="m 7.28125,-1.15625 c -0.585938,0.5 -1.148438,0.855469 -1.6875,1.0625 -0.542969,0.207031 -1.125,0.3125 -1.75,0.3125 -1.023438,0 -1.808594,-0.25 -2.359375,-0.75 C 0.929688,-1.039062 0.65625,-1.6875 0.65625,-2.46875 c 0,-0.457031 0.101562,-0.875 0.3125,-1.25 0.207031,-0.375 0.476562,-0.675781 0.8125,-0.90625 0.332031,-0.226562 0.710938,-0.398438 1.140625,-0.515625 0.3125,-0.082031 0.78125,-0.164063 1.40625,-0.25 1.28125,-0.144531 2.222656,-0.320313 2.828125,-0.53125 0,-0.21875 0,-0.359375 0,-0.421875 0,-0.644531 -0.148438,-1.097656 -0.4375,-1.359375 C 6.3125,-8.066406 5.707031,-8.25 4.90625,-8.25 4.164062,-8.25 3.617188,-8.113281 3.265625,-7.84375 2.910156,-7.582031 2.644531,-7.125 2.46875,-6.46875 L 0.921875,-6.671875 C 1.066406,-7.335938 1.300781,-7.875 1.625,-8.28125 1.945312,-8.6875 2.410156,-9 3.015625,-9.21875 c 0.613281,-0.21875 1.320313,-0.328125 2.125,-0.328125 0.789063,0 1.4375,0.09375 1.9375,0.28125 0.5,0.1875 0.863281,0.421875 1.09375,0.703125 0.238281,0.28125 0.40625,0.640625 0.5,1.078125 C 8.722656,-7.210938 8.75,-6.726562 8.75,-6.03125 v 2.109375 c 0,1.480469 0.03125,2.417969 0.09375,2.8125 C 8.914062,-0.722656 9.050781,-0.351562 9.25,0 H 7.59375 C 7.4375,-0.332031 7.332031,-0.71875 7.28125,-1.15625 Z M 7.15625,-4.6875 C 6.582031,-4.457031 5.71875,-4.257812 4.5625,-4.09375 3.914062,-4 3.457031,-3.890625 3.1875,-3.765625 2.914062,-3.648438 2.707031,-3.476562 2.5625,-3.25 2.414062,-3.03125 2.34375,-2.78125 2.34375,-2.5 c 0,0.417969 0.15625,0.765625 0.46875,1.046875 0.320312,0.28125 0.789062,0.421875 1.40625,0.421875 0.613281,0 1.15625,-0.128906 1.625,-0.390625 C 6.320312,-1.691406 6.671875,-2.0625 6.890625,-2.53125 7.066406,-2.882812 7.15625,-3.410156 7.15625,-4.109375 Z m 0,0"
           id="path4306" />
      </g>
      <g
         id="use181"
         transform="translate(279.63208,451.69867)">
        <path
           style="stroke:none"
           d="m 1.1875,0 v -9.34375 h 1.421875 v 1.328125 c 0.6875,-1.019531 1.675781,-1.53125 2.96875,-1.53125 0.570313,0 1.09375,0.101563 1.5625,0.296875 0.46875,0.199219 0.816406,0.464844 1.046875,0.796875 0.238281,0.324219 0.40625,0.714844 0.5,1.171875 C 8.75,-6.988281 8.78125,-6.476562 8.78125,-5.75 V 0 H 7.203125 v -5.6875 c 0,-0.644531 -0.0625,-1.125 -0.1875,-1.4375 -0.125,-0.320312 -0.34375,-0.578125 -0.65625,-0.765625 C 6.046875,-8.085938 5.675781,-8.1875 5.25,-8.1875 c -0.679688,0 -1.261719,0.21875 -1.75,0.65625 -0.492188,0.429688 -0.734375,1.234375 -0.734375,2.421875 V 0 Z m 0,0"
           id="path4318" />
      </g>
      <g
         id="use183"
         transform="translate(289.64758,451.69867)">
        <path
           style="stroke:none"
           d="m 0.546875,-2.78125 1.578125,-0.25 c 0.082031,0.625 0.320312,1.105469 0.71875,1.4375 0.40625,0.335938 0.972656,0.5 1.703125,0.5 0.71875,0 1.253906,-0.144531 1.609375,-0.4375 0.351562,-0.300781 0.53125,-0.648438 0.53125,-1.046875 0,-0.351563 -0.15625,-0.632813 -0.46875,-0.84375 C 6,-3.566406 5.457031,-3.742188 4.59375,-3.953125 3.4375,-4.242188 2.632812,-4.5 2.1875,-4.71875 1.738281,-4.9375 1.394531,-5.234375 1.15625,-5.609375 c -0.230469,-0.375 -0.34375,-0.789063 -0.34375,-1.25 0,-0.414063 0.09375,-0.800781 0.28125,-1.15625 0.195312,-0.351563 0.457031,-0.648437 0.78125,-0.890625 0.25,-0.175781 0.585938,-0.328125 1.015625,-0.453125 0.425781,-0.125 0.878906,-0.1875 1.359375,-0.1875 0.738281,0 1.382812,0.105469 1.9375,0.3125 0.550781,0.210937 0.957031,0.496094 1.21875,0.859375 0.269531,0.355469 0.457031,0.835938 0.5625,1.4375 l -1.5625,0.21875 C 6.34375,-7.195312 6.140625,-7.570312 5.796875,-7.84375 5.460938,-8.113281 4.988281,-8.25 4.375,-8.25 c -0.730469,0 -1.25,0.121094 -1.5625,0.359375 -0.3125,0.242187 -0.46875,0.523437 -0.46875,0.84375 0,0.210937 0.066406,0.398437 0.203125,0.5625 0.125,0.167969 0.328125,0.308594 0.609375,0.421875 0.15625,0.054688 0.617188,0.183594 1.390625,0.390625 1.125,0.304687 1.90625,0.554687 2.34375,0.75 0.445313,0.1875 0.796875,0.464844 1.046875,0.828125 0.25,0.367188 0.375,0.8125 0.375,1.34375 0,0.53125 -0.15625,1.03125 -0.46875,1.5 -0.304688,0.46875 -0.746094,0.835938 -1.328125,1.09375 -0.585937,0.25 -1.242187,0.375 -1.96875,0.375 -1.210937,0 -2.136719,-0.25 -2.78125,-0.75 -0.636719,-0.507812 -1.042969,-1.257812 -1.21875,-2.25 z m 0,0"
           id="path4262" />
      </g>
      <g
         id="use185"
         transform="translate(298.65189,451.69867)">
        <path
           style="stroke:none"
           d="M 1.15625,0 V -12.890625 H 2.734375 V 0 Z m 0,0"
           id="path4298" />
      </g>
      <g
         id="use187"
         transform="translate(302.65283,451.69867)">
        <path
           style="stroke:none"
           d="m 7.28125,-1.15625 c -0.585938,0.5 -1.148438,0.855469 -1.6875,1.0625 -0.542969,0.207031 -1.125,0.3125 -1.75,0.3125 -1.023438,0 -1.808594,-0.25 -2.359375,-0.75 C 0.929688,-1.039062 0.65625,-1.6875 0.65625,-2.46875 c 0,-0.457031 0.101562,-0.875 0.3125,-1.25 0.207031,-0.375 0.476562,-0.675781 0.8125,-0.90625 0.332031,-0.226562 0.710938,-0.398438 1.140625,-0.515625 0.3125,-0.082031 0.78125,-0.164063 1.40625,-0.25 1.28125,-0.144531 2.222656,-0.320313 2.828125,-0.53125 0,-0.21875 0,-0.359375 0,-0.421875 0,-0.644531 -0.148438,-1.097656 -0.4375,-1.359375 C 6.3125,-8.066406 5.707031,-8.25 4.90625,-8.25 4.164062,-8.25 3.617188,-8.113281 3.265625,-7.84375 2.910156,-7.582031 2.644531,-7.125 2.46875,-6.46875 L 0.921875,-6.671875 C 1.066406,-7.335938 1.300781,-7.875 1.625,-8.28125 1.945312,-8.6875 2.410156,-9 3.015625,-9.21875 c 0.613281,-0.21875 1.320313,-0.328125 2.125,-0.328125 0.789063,0 1.4375,0.09375 1.9375,0.28125 0.5,0.1875 0.863281,0.421875 1.09375,0.703125 0.238281,0.28125 0.40625,0.640625 0.5,1.078125 C 8.722656,-7.210938 8.75,-6.726562 8.75,-6.03125 v 2.109375 c 0,1.480469 0.03125,2.417969 0.09375,2.8125 C 8.914062,-0.722656 9.050781,-0.351562 9.25,0 H 7.59375 C 7.4375,-0.332031 7.332031,-0.71875 7.28125,-1.15625 Z M 7.15625,-4.6875 C 6.582031,-4.457031 5.71875,-4.257812 4.5625,-4.09375 3.914062,-4 3.457031,-3.890625 3.1875,-3.765625 2.914062,-3.648438 2.707031,-3.476562 2.5625,-3.25 2.414062,-3.03125 2.34375,-2.78125 2.34375,-2.5 c 0,0.417969 0.15625,0.765625 0.46875,1.046875 0.320312,0.28125 0.789062,0.421875 1.40625,0.421875 0.613281,0 1.15625,-0.128906 1.625,-0.390625 C 6.320312,-1.691406 6.671875,-2.0625 6.890625,-2.53125 7.066406,-2.882812 7.15625,-3.410156 7.15625,-4.109375 Z m 0,0"
           id="path4310" />
      </g>
      <g
         id="use189"
         transform="translate(312.66837,451.69867)">
        <path
           style="stroke:none"
           d="M 4.640625,-1.421875 4.875,-0.015625 C 4.425781,0.078125 4.023438,0.125 3.671875,0.125 c -0.574219,0 -1.023437,-0.0898438 -1.34375,-0.265625 -0.3125,-0.1875 -0.53125,-0.425781 -0.65625,-0.71875 -0.125,-0.300781 -0.1875,-0.925781 -0.1875,-1.875 v -5.375 H 0.3125 V -9.34375 h 1.171875 v -2.3125 l 1.5625,-0.953125 v 3.265625 h 1.59375 v 1.234375 h -1.59375 v 5.46875 c 0,0.449219 0.023437,0.742187 0.078125,0.875 0.0625,0.125 0.15625,0.226563 0.28125,0.296875 0.125,0.074219 0.304688,0.109375 0.546875,0.109375 0.175781,0 0.40625,-0.019531 0.6875,-0.0625 z m 0,0"
           id="path4266" />
      </g>
      <g
         id="use191"
         transform="translate(317.67172,451.69867)">
        <path
           style="stroke:none"
           d="m 1.203125,-11.078125 v -1.8125 H 2.78125 v 1.8125 z M 1.203125,0 V -9.34375 H 2.78125 V 0 Z m 0,0"
           id="path4350" />
      </g>
      <g
         id="use193"
         transform="translate(321.67267,451.69867)">
        <path
           style="stroke:none"
           d="m 0.59375,-4.671875 c 0,-1.726563 0.484375,-3.007813 1.453125,-3.84375 0.800781,-0.6875 1.78125,-1.03125 2.9375,-1.03125 1.28125,0 2.328125,0.421875 3.140625,1.265625 0.8125,0.835938 1.21875,1.996094 1.21875,3.484375 0,1.199219 -0.183594,2.140625 -0.546875,2.828125 -0.355469,0.6875 -0.875,1.226562 -1.5625,1.609375 -0.6875,0.3828125 -1.4375,0.578125 -2.25,0.578125 -1.3125,0 -2.375,-0.421875 -3.1875,-1.265625 -0.804687,-0.84375 -1.203125,-2.050781 -1.203125,-3.625 z m 1.625,0 c 0,1.199219 0.257812,2.09375 0.78125,2.6875 0.53125,0.59375 1.191406,0.890625 1.984375,0.890625 0.78125,0 1.429687,-0.296875 1.953125,-0.890625 C 7.457031,-2.585938 7.71875,-3.5 7.71875,-4.71875 7.71875,-5.875 7.457031,-6.75 6.9375,-7.34375 6.414062,-7.945312 5.765625,-8.25 4.984375,-8.25 4.191406,-8.25 3.53125,-7.953125 3,-7.359375 c -0.523438,0.59375 -0.78125,1.492187 -0.78125,2.6875 z m 0,0"
           id="path4282" />
      </g>
      <g
         id="use195"
         transform="translate(331.6882,451.69867)">
        <path
           style="stroke:none"
           d="m 1.1875,0 v -9.34375 h 1.421875 v 1.328125 c 0.6875,-1.019531 1.675781,-1.53125 2.96875,-1.53125 0.570313,0 1.09375,0.101563 1.5625,0.296875 0.46875,0.199219 0.816406,0.464844 1.046875,0.796875 0.238281,0.324219 0.40625,0.714844 0.5,1.171875 C 8.75,-6.988281 8.78125,-6.476562 8.78125,-5.75 V 0 H 7.203125 v -5.6875 c 0,-0.644531 -0.0625,-1.125 -0.1875,-1.4375 -0.125,-0.320312 -0.34375,-0.578125 -0.65625,-0.765625 C 6.046875,-8.085938 5.675781,-8.1875 5.25,-8.1875 c -0.679688,0 -1.261719,0.21875 -1.75,0.65625 -0.492188,0.429688 -0.734375,1.234375 -0.734375,2.421875 V 0 Z m 0,0"
           id="path4322" />
      </g>
    </g>
  </g>
</svg>
