<?xml version="1.0" encoding="UTF-8" standalone="no"?>
<svg
   width="158.75mm"
   height="105.833mm"
   version="1.2"
   id="svg80"
   xmlns="http://www.w3.org/2000/svg"
   xmlns:svg="http://www.w3.org/2000/svg">
  <desc
     id="desc2">Created by HiQPdf</desc>
  <defs
     id="defs4">
    <clipPath
       id="clip2">
      <path
         d="m 459,370 h 4 v 102 h -4 z m 0,0"
         id="path52" />
    </clipPath>
    <clipPath
       id="clip3">
      <path
         d="m 463.70312,370.58594 -3.75,3.75 v 97.62109 h 3.75"
         id="path55" />
    </clipPath>
    <clipPath
       id="clip4">
      <path
         d="m 463.70312,370.66016 h -3.75 v 97.62109 l 3.75,3.75391"
         id="path58" />
    </clipPath>
    <clipPath
       id="clip5">
      <path
         d="m 462,370 h 2 v 102 h -2 z m 0,0"
         id="path61" />
    </clipPath>
    <clipPath
       id="clip6">
      <path
         d="m 463.70312,370.58594 -3.75,3.75 v 97.62109 h 3.75"
         id="path64" />
    </clipPath>
    <clipPath
       id="clip7">
      <path
         d="m 463.70312,370.66016 h -3.75 v 97.62109 l 3.75,3.75391"
         id="path67" />
    </clipPath>
    <clipPath
       id="clip8">
      <path
         d="m 132,370 h 3 v 102 h -3 z m 0,0"
         id="path70" />
    </clipPath>
    <clipPath
       id="clip9">
      <path
         d="m 132.04687,472.03516 3.75,-3.75391 v -97.62109 h -3.75"
         id="path73" />
    </clipPath>
    <clipPath
       id="clip10">
      <path
         d="m 132.04687,471.95703 h 3.75 v -97.62109 l -3.75,-3.75"
         id="path76" />
    </clipPath>
    <clipPath
       id="clip11">
      <path
         d="m 134,370 h 2 v 102 h -2 z m 0,0"
         id="path79" />
    </clipPath>
    <clipPath
       id="clip12">
      <path
         d="m 132.04687,472.03516 3.75,-3.75391 v -97.62109 h -3.75"
         id="path82" />
    </clipPath>
    <clipPath
       id="clip13">
      <path
         d="m 132.04687,471.95703 h 3.75 v -97.62109 l -3.75,-3.75"
         id="path85" />
    </clipPath>
    <clipPath
       id="clip14">
      <path
         d="m 147.80469,419.43359 h 300.14062 v 3.75 H 147.80469 Z m 0,0"
         id="path88" />
    </clipPath>
    <clipPath
       id="clip2-6">
      <path
         d="m 296.375,345.89844 h 3 v 150.07031 h -3 z m 0,0"
         id="path14955" />
    </clipPath>
  </defs>
  <g
     fill="none"
     stroke="black"
     stroke-width="1"
     fill-rule="evenodd"
     stroke-linecap="square"
     stroke-linejoin="bevel"
     id="g78">
    <g
       fill="#000000"
       fill-opacity="1"
       stroke="#000000"
       stroke-opacity="1"
       stroke-width="1"
       stroke-linecap="square"
       stroke-linejoin="miter"
       stroke-miterlimit="2"
       transform="matrix(1,0,0,1,0,0)"
       id="g6" />
    <g
       fill="#000000"
       fill-opacity="1"
       stroke="#000000"
       stroke-opacity="1"
       stroke-width="1"
       stroke-linecap="square"
       stroke-linejoin="miter"
       stroke-miterlimit="2"
       transform="matrix(1,0,0,1,0,0)"
       id="g8" />
    <g
       fill="#000000"
       fill-opacity="1"
       stroke="#000000"
       stroke-opacity="1"
       stroke-width="1"
       stroke-linecap="square"
       stroke-linejoin="miter"
       stroke-miterlimit="2"
       transform="matrix(1,0,0,1,0,0)"
       id="g10" />
    <g
       fill="#fbfbfb"
       fill-opacity="1"
       stroke="none"
       transform="matrix(1,0,0,1,0,0)"
       id="g14"
       style="fill:#ffffa8;fill-opacity:1">
      <path
         vector-effect="none"
         fill-rule="evenodd"
         d="M8,8 L592,8 L592,380 L8,380 L8,8"
         id="path12"
         style="fill:#ffffa8;fill-opacity:1" />
    </g>
    <path
       style="fill:#ffeea8;fill-opacity:1;fill-rule:nonzero;stroke:#ee9730;stroke-width:4.00191;stroke-linecap:butt;stroke-linejoin:miter;stroke-miterlimit:4;stroke-opacity:1"
       d="M 74.260832,281.04347 V 102.96006 c 0,-0.85416 0.08334,-1.69792 0.249999,-2.53646 0.16667,-0.838538 0.41667,-1.651037 0.739584,-2.442705 0.328127,-0.786467 0.729169,-1.536465 1.203126,-2.244794 0.473956,-0.713541 1.015625,-1.369795 1.619794,-1.973964 0.60416,-0.604159 1.260413,-1.140626 1.968752,-1.614583 0.708329,-0.479169 1.458328,-0.874998 2.249997,-1.203125 0.786456,-0.328127 1.598955,-0.572914 2.437496,-0.739584 0.838541,-0.16667 1.682294,-0.25 2.536463,-0.25 H 515.47457 c 0.85415,0 1.69791,0.08334 2.53645,0.25 0.83854,0.16667 1.65105,0.411457 2.4375,0.739584 0.79167,0.328127 1.54167,0.723956 2.25,1.203125 0.70834,0.473957 1.3698,1.010424 1.96875,1.614583 0.60417,0.604169 1.14584,1.260423 1.6198,1.973964 0.47395,0.708329 0.875,1.458327 1.20312,2.244794 0.32813,0.791668 0.57292,1.604167 0.73959,2.442705 0.16667,0.83854 0.25,1.6823 0.25,2.53646 v 178.08341 c 0,0.85417 -0.0833,1.70313 -0.25,2.53646 -0.16667,0.83854 -0.41146,1.65104 -0.73959,2.44271 -0.32812,0.78645 -0.72917,1.53646 -1.20312,2.25 -0.47396,0.70833 -1.01563,1.36459 -1.6198,1.96876 -0.59895,0.60416 -1.26041,1.14062 -1.96875,1.61978 -0.70833,0.47397 -1.45833,0.87501 -2.25,1.19792 -0.78645,0.32812 -1.59896,0.57292 -2.4375,0.73959 -0.83854,0.16666 -1.6823,0.25 -2.53645,0.25 H 87.266043 c -0.854169,0 -1.697922,-0.0833 -2.536463,-0.25 -0.838541,-0.16667 -1.65104,-0.41147 -2.437496,-0.73959 -0.791669,-0.32291 -1.541668,-0.72395 -2.249997,-1.19792 -0.708339,-0.47916 -1.364592,-1.01562 -1.968752,-1.61978 -0.604169,-0.60417 -1.145838,-1.26043 -1.619794,-1.96876 -0.473957,-0.71354 -0.874999,-1.46355 -1.203126,-2.25 -0.322914,-0.79167 -0.572914,-1.60417 -0.739584,-2.44271 -0.166669,-0.83333 -0.249999,-1.68229 -0.249999,-2.53646 z m 0,0"
       id="path14966" />
    <g
       style="fill:#000000;fill-opacity:1"
       id="g14994"
       transform="matrix(1.3333333,0,0,1.3333333,-95.796514,-369.24325)">
      <g
         id="use14968"
         transform="translate(159.2933,426.93683)">
        <path
           style="stroke:none"
           d="m 0.875,-6.28125 c 0,-2.132812 0.570312,-3.804688 1.71875,-5.015625 1.144531,-1.21875 2.628906,-1.828125 4.453125,-1.828125 1.1875,0 2.257813,0.289062 3.21875,0.859375 0.957031,0.5625 1.6875,1.355469 2.1875,2.375 0.5,1.023437 0.75,2.171875 0.75,3.453125 0,1.3125 -0.265625,2.484375 -0.796875,3.515625 -0.523438,1.03125 -1.265625,1.8125 -2.234375,2.34375 -0.96875,0.53125 -2.015625,0.796875 -3.140625,0.796875 -1.210938,0 -2.292969,-0.2890625 -3.25,-0.875 C 2.820312,-1.25 2.097656,-2.050781 1.609375,-3.0625 1.117188,-4.070312 0.875,-5.144531 0.875,-6.28125 Z M 2.625,-6.25 c 0,1.554688 0.414062,2.777344 1.25,3.671875 0.84375,0.898437 1.894531,1.34375 3.15625,1.34375 1.28125,0 2.332031,-0.453125 3.15625,-1.359375 0.832031,-0.90625 1.25,-2.1875 1.25,-3.84375 0,-1.050781 -0.179688,-1.96875 -0.53125,-2.75 -0.355469,-0.78125 -0.875,-1.382812 -1.5625,-1.8125 -0.679688,-0.4375 -1.4375,-0.65625 -2.28125,-0.65625 -1.210938,0 -2.25,0.417969 -3.125,1.25 C 3.0625,-9.582031 2.625,-8.195312 2.625,-6.25 Z m 0,0"
           id="path19166" />
      </g>
      <g
         id="use14970"
         transform="translate(173.30096,426.93683)">
        <path
           style="stroke:none"
           d="M 1.171875,0 V -9.34375 H 2.59375 v 1.421875 c 0.363281,-0.664063 0.695312,-1.101563 1,-1.3125 0.3125,-0.207031 0.65625,-0.3125 1.03125,-0.3125 0.53125,0 1.070312,0.167969 1.625,0.5 l -0.546875,1.46875 c -0.386719,-0.226563 -0.773437,-0.34375 -1.15625,-0.34375 -0.355469,0 -0.671875,0.105469 -0.953125,0.3125 -0.273438,0.210937 -0.464844,0.5 -0.578125,0.875 C 2.835938,-6.171875 2.75,-5.554688 2.75,-4.890625 V 0 Z m 0,0"
           id="path19094" />
      </g>
      <g
         id="use14972"
         transform="translate(179.29797,426.93683)">
        <path
           style="stroke:none"
           d="m 1.203125,-11.078125 v -1.8125 H 2.78125 v 1.8125 z M 1.203125,0 V -9.34375 H 2.78125 V 0 Z m 0,0"
           id="path19138" />
      </g>
      <g
         id="use14974"
         transform="translate(183.29892,426.93683)">
        <path
           style="stroke:none"
           d="M 0.890625,0.78125 2.4375,1 C 2.5,1.476562 2.675781,1.828125 2.96875,2.046875 c 0.394531,0.289063 0.929688,0.4375 1.609375,0.4375 0.738281,0 1.304687,-0.152344 1.703125,-0.453125 0.394531,-0.292969 0.664062,-0.699219 0.8125,-1.21875 0.082031,-0.324219 0.117188,-1 0.109375,-2.03125 C 6.515625,-0.40625 5.65625,0 4.625,0 3.332031,0 2.332031,-0.460938 1.625,-1.390625 0.925781,-2.316406 0.578125,-3.425781 0.578125,-4.71875 c 0,-0.894531 0.160156,-1.71875 0.484375,-2.46875 0.320312,-0.757812 0.789062,-1.34375 1.40625,-1.75 0.613281,-0.40625 1.332031,-0.609375 2.15625,-0.609375 1.101562,0 2.015625,0.445313 2.734375,1.328125 v -1.125 H 8.8125 v 8.078125 c 0,1.457031 -0.152344,2.488281 -0.453125,3.09375 -0.292969,0.601563 -0.761719,1.082031 -1.40625,1.4375 -0.636719,0.351563 -1.421875,0.53125 -2.359375,0.53125 -1.117188,0 -2.015625,-0.257813 -2.703125,-0.765625 -0.6875,-0.5 -1.023437,-1.25 -1,-2.25 z m 1.3125,-5.625 c 0,1.230469 0.242187,2.125 0.734375,2.6875 0.488281,0.5625 1.097656,0.84375 1.828125,0.84375 0.726563,0 1.335937,-0.273438 1.828125,-0.828125 0.5,-0.5625 0.75,-1.441406 0.75,-2.640625 0,-1.144531 -0.257812,-2.007812 -0.765625,-2.59375 C 6.066406,-7.957031 5.453125,-8.25 4.734375,-8.25 4.035156,-8.25 3.4375,-7.960938 2.9375,-7.390625 2.445312,-6.816406 2.203125,-5.96875 2.203125,-4.84375 Z m 0,0"
           id="path19134" />
      </g>
      <g
         id="use14976"
         transform="translate(193.31444,426.93683)">
        <path
           style="stroke:none"
           d="m 1.203125,-11.078125 v -1.8125 H 2.78125 v 1.8125 z M 1.203125,0 V -9.34375 H 2.78125 V 0 Z m 0,0"
           id="path19142" />
      </g>
      <g
         id="use14978"
         transform="translate(197.31538,426.93683)">
        <path
           style="stroke:none"
           d="m 1.1875,0 v -9.34375 h 1.421875 v 1.328125 c 0.6875,-1.019531 1.675781,-1.53125 2.96875,-1.53125 0.570313,0 1.09375,0.101563 1.5625,0.296875 0.46875,0.199219 0.816406,0.464844 1.046875,0.796875 0.238281,0.324219 0.40625,0.714844 0.5,1.171875 C 8.75,-6.988281 8.78125,-6.476562 8.78125,-5.75 V 0 H 7.203125 v -5.6875 c 0,-0.644531 -0.0625,-1.125 -0.1875,-1.4375 -0.125,-0.320312 -0.34375,-0.578125 -0.65625,-0.765625 C 6.046875,-8.085938 5.675781,-8.1875 5.25,-8.1875 c -0.679688,0 -1.261719,0.21875 -1.75,0.65625 -0.492188,0.429688 -0.734375,1.234375 -0.734375,2.421875 V 0 Z m 0,0"
           id="path19170" />
      </g>
      <g
         id="use14980"
         transform="translate(207.3309,426.93683)">
        <path
           style="stroke:none"
           d="m 7.28125,-1.15625 c -0.585938,0.5 -1.148438,0.855469 -1.6875,1.0625 -0.542969,0.207031 -1.125,0.3125 -1.75,0.3125 -1.023438,0 -1.808594,-0.25 -2.359375,-0.75 C 0.929688,-1.039062 0.65625,-1.6875 0.65625,-2.46875 c 0,-0.457031 0.101562,-0.875 0.3125,-1.25 0.207031,-0.375 0.476562,-0.675781 0.8125,-0.90625 0.332031,-0.226562 0.710938,-0.398438 1.140625,-0.515625 0.3125,-0.082031 0.78125,-0.164063 1.40625,-0.25 1.28125,-0.144531 2.222656,-0.320313 2.828125,-0.53125 0,-0.21875 0,-0.359375 0,-0.421875 0,-0.644531 -0.148438,-1.097656 -0.4375,-1.359375 C 6.3125,-8.066406 5.707031,-8.25 4.90625,-8.25 4.164062,-8.25 3.617188,-8.113281 3.265625,-7.84375 2.910156,-7.582031 2.644531,-7.125 2.46875,-6.46875 L 0.921875,-6.671875 C 1.066406,-7.335938 1.300781,-7.875 1.625,-8.28125 1.945312,-8.6875 2.410156,-9 3.015625,-9.21875 c 0.613281,-0.21875 1.320313,-0.328125 2.125,-0.328125 0.789063,0 1.4375,0.09375 1.9375,0.28125 0.5,0.1875 0.863281,0.421875 1.09375,0.703125 0.238281,0.28125 0.40625,0.640625 0.5,1.078125 C 8.722656,-7.210938 8.75,-6.726562 8.75,-6.03125 v 2.109375 c 0,1.480469 0.03125,2.417969 0.09375,2.8125 C 8.914062,-0.722656 9.050781,-0.351562 9.25,0 H 7.59375 C 7.4375,-0.332031 7.332031,-0.71875 7.28125,-1.15625 Z M 7.15625,-4.6875 C 6.582031,-4.457031 5.71875,-4.257812 4.5625,-4.09375 3.914062,-4 3.457031,-3.890625 3.1875,-3.765625 2.914062,-3.648438 2.707031,-3.476562 2.5625,-3.25 2.414062,-3.03125 2.34375,-2.78125 2.34375,-2.5 c 0,0.417969 0.15625,0.765625 0.46875,1.046875 0.320312,0.28125 0.789062,0.421875 1.40625,0.421875 0.613281,0 1.15625,-0.128906 1.625,-0.390625 C 6.320312,-1.691406 6.671875,-2.0625 6.890625,-2.53125 7.066406,-2.882812 7.15625,-3.410156 7.15625,-4.109375 Z m 0,0"
           id="path19154" />
      </g>
      <g
         id="use14982"
         transform="translate(217.34644,426.93683)">
        <path
           style="stroke:none"
           d="M 1.15625,0 V -12.890625 H 2.734375 V 0 Z m 0,0"
           id="path19114" />
      </g>
      <g
         id="use14984"
         transform="translate(221.34737,426.93683)">
        <path
           style="stroke:none"
           d=""
           id="path19130" />
      </g>
      <g
         id="use14986"
         transform="translate(226.35074,426.93683)">
        <path
           style="stroke:none"
           d="M 2.90625,0 0.046875,-9.34375 H 1.6875 l 1.484375,5.390625 0.5625,2.015625 c 0.019531,-0.101562 0.179687,-0.75 0.484375,-1.9375 l 1.484375,-5.46875 h 1.625 l 1.390625,5.421875 0.46875,1.78125 0.546875,-1.796875 1.59375,-5.40625 H 12.875 L 9.953125,0 H 8.296875 L 6.8125,-5.59375 6.453125,-7.1875 4.5625,0 Z m 0,0"
           id="path19150" />
      </g>
      <g
         id="use14988"
         transform="translate(239.35597,426.93683)">
        <path
           style="stroke:none"
           d="m 0.59375,-4.671875 c 0,-1.726563 0.484375,-3.007813 1.453125,-3.84375 0.800781,-0.6875 1.78125,-1.03125 2.9375,-1.03125 1.28125,0 2.328125,0.421875 3.140625,1.265625 0.8125,0.835938 1.21875,1.996094 1.21875,3.484375 0,1.199219 -0.183594,2.140625 -0.546875,2.828125 -0.355469,0.6875 -0.875,1.226562 -1.5625,1.609375 -0.6875,0.3828125 -1.4375,0.578125 -2.25,0.578125 -1.3125,0 -2.375,-0.421875 -3.1875,-1.265625 -0.804687,-0.84375 -1.203125,-2.050781 -1.203125,-3.625 z m 1.625,0 c 0,1.199219 0.257812,2.09375 0.78125,2.6875 0.53125,0.59375 1.191406,0.890625 1.984375,0.890625 0.78125,0 1.429687,-0.296875 1.953125,-0.890625 C 7.457031,-2.585938 7.71875,-3.5 7.71875,-4.71875 7.71875,-5.875 7.457031,-6.75 6.9375,-7.34375 6.414062,-7.945312 5.765625,-8.25 4.984375,-8.25 4.191406,-8.25 3.53125,-7.953125 3,-7.359375 c -0.523438,0.59375 -0.78125,1.492187 -0.78125,2.6875 z m 0,0"
           id="path19122" />
      </g>
      <g
         id="use14990"
         transform="translate(249.37151,426.93683)">
        <path
           style="stroke:none"
           d="M 1.171875,0 V -9.34375 H 2.59375 v 1.421875 c 0.363281,-0.664063 0.695312,-1.101563 1,-1.3125 0.3125,-0.207031 0.65625,-0.3125 1.03125,-0.3125 0.53125,0 1.070312,0.167969 1.625,0.5 l -0.546875,1.46875 c -0.386719,-0.226563 -0.773437,-0.34375 -1.15625,-0.34375 -0.355469,0 -0.671875,0.105469 -0.953125,0.3125 -0.273438,0.210937 -0.464844,0.5 -0.578125,0.875 C 2.835938,-6.171875 2.75,-5.554688 2.75,-4.890625 V 0 Z m 0,0"
           id="path19098" />
      </g>
      <g
         id="use14992"
         transform="translate(255.36852,426.93683)">
        <path
           style="stroke:none"
           d="M 7.25,0 V -1.171875 C 6.65625,-0.242188 5.785156,0.21875 4.640625,0.21875 c -0.75,0 -1.4375,-0.203125 -2.0625,-0.609375 C 1.953125,-0.804688 1.46875,-1.382812 1.125,-2.125 0.78125,-2.863281 0.609375,-3.707031 0.609375,-4.65625 c 0,-0.9375 0.15625,-1.785156 0.46875,-2.546875 0.3125,-0.757813 0.773437,-1.335937 1.390625,-1.734375 0.625,-0.40625 1.320312,-0.609375 2.09375,-0.609375 0.5625,0 1.0625,0.121094 1.5,0.359375 0.445312,0.230469 0.804688,0.539062 1.078125,0.921875 v -4.625 H 8.71875 V 0 Z m -5,-4.65625 c 0,1.1875 0.25,2.078125 0.75,2.671875 0.5,0.59375 1.09375,0.890625 1.78125,0.890625 0.695312,0 1.285156,-0.28125 1.765625,-0.84375 C 7.035156,-2.5 7.28125,-3.363281 7.28125,-4.53125 c 0,-1.28125 -0.25,-2.21875 -0.75,-2.8125 C 6.039062,-7.945312 5.4375,-8.25 4.71875,-8.25 4.007812,-8.25 3.421875,-7.957031 2.953125,-7.375 2.484375,-6.800781 2.25,-5.894531 2.25,-4.65625 Z m 0,0"
           id="path19186" />
      </g>
    </g>
    <g
       clip-path="url(#clip2-6)"
       clip-rule="nonzero"
       id="g14998"
       transform="matrix(1.3333333,0,0,1.3333333,-95.796514,-369.24325)">
      <path
         style="fill:#eea842;fill-opacity:1;fill-rule:nonzero;stroke:none"
         d="m 299.375,347.39844 c 0,0.19922 -0.0391,0.39062 -0.11328,0.57422 -0.0781,0.18359 -0.1836,0.34765 -0.32422,0.48828 -0.14063,0.14062 -0.30469,0.25 -0.48828,0.32422 -0.1836,0.0781 -0.375,0.11328 -0.57422,0.11328 -0.19922,0 -0.39063,-0.0352 -0.57422,-0.11328 -0.18359,-0.0742 -0.34766,-0.1836 -0.48828,-0.32422 -0.14063,-0.14063 -0.24609,-0.30469 -0.32422,-0.48828 -0.0742,-0.1836 -0.11328,-0.375 -0.11328,-0.57422 0,-0.19922 0.0391,-0.39063 0.11328,-0.57422 0.0781,-0.1836 0.18359,-0.34766 0.32422,-0.48828 0.14062,-0.14063 0.30469,-0.2461 0.48828,-0.32422 0.18359,-0.0742 0.375,-0.11328 0.57422,-0.11328 0.19922,0 0.39062,0.0391 0.57422,0.11328 0.18359,0.0781 0.34765,0.18359 0.48828,0.32422 0.14062,0.14062 0.24609,0.30468 0.32422,0.48828 0.0742,0.18359 0.11328,0.375 0.11328,0.57422 z m 0,5.875 c 0,0.19922 -0.0391,0.39062 -0.11328,0.57422 -0.0781,0.18359 -0.1836,0.34765 -0.32422,0.48828 -0.14063,0.14062 -0.30469,0.25 -0.48828,0.32422 -0.1836,0.0781 -0.375,0.11328 -0.57422,0.11328 -0.19922,0 -0.39063,-0.0352 -0.57422,-0.11328 -0.18359,-0.0742 -0.34766,-0.1836 -0.48828,-0.32422 -0.14063,-0.14063 -0.24609,-0.30469 -0.32422,-0.48828 -0.0742,-0.1836 -0.11328,-0.375 -0.11328,-0.57422 0,-0.19922 0.0391,-0.39063 0.11328,-0.57422 0.0781,-0.1836 0.18359,-0.34375 0.32422,-0.48438 0.14062,-0.14453 0.30469,-0.25 0.48828,-0.32812 0.18359,-0.0742 0.375,-0.11328 0.57422,-0.11328 0.19922,0 0.39062,0.0391 0.57422,0.11328 0.18359,0.0781 0.34765,0.18359 0.48828,0.32812 0.14062,0.14063 0.24609,0.30078 0.32422,0.48438 0.0742,0.18359 0.11328,0.375 0.11328,0.57422 z m 0,5.875 c 0,0.19922 -0.0391,0.39062 -0.11328,0.57422 -0.0781,0.18359 -0.1836,0.34765 -0.32422,0.48828 -0.14063,0.14062 -0.30469,0.25 -0.48828,0.32422 -0.1836,0.0781 -0.375,0.11328 -0.57422,0.11328 -0.19922,0 -0.39063,-0.0352 -0.57422,-0.11328 -0.18359,-0.0742 -0.34766,-0.1836 -0.48828,-0.32422 -0.14063,-0.14063 -0.24609,-0.30469 -0.32422,-0.48828 -0.0742,-0.1836 -0.11328,-0.375 -0.11328,-0.57422 0,-0.19922 0.0391,-0.39063 0.11328,-0.57422 0.0781,-0.1836 0.18359,-0.34375 0.32422,-0.48438 0.14062,-0.14062 0.30469,-0.25 0.48828,-0.32812 0.18359,-0.0742 0.375,-0.11328 0.57422,-0.11328 0.19922,0 0.39062,0.0391 0.57422,0.11328 0.18359,0.0781 0.34765,0.1875 0.48828,0.32812 0.14062,0.14063 0.24609,0.30078 0.32422,0.48438 0.0742,0.18359 0.11328,0.375 0.11328,0.57422 z m 0,5.875 c 0,0.19922 -0.0391,0.39062 -0.11328,0.57422 -0.0781,0.18359 -0.1836,0.34765 -0.32422,0.48828 -0.14063,0.14062 -0.30469,0.25 -0.48828,0.32422 -0.1836,0.0781 -0.375,0.11718 -0.57422,0.11718 -0.19922,0 -0.39063,-0.0391 -0.57422,-0.11718 -0.18359,-0.0742 -0.34766,-0.1836 -0.48828,-0.32422 -0.14063,-0.14063 -0.24609,-0.30469 -0.32422,-0.48828 -0.0742,-0.1836 -0.11328,-0.375 -0.11328,-0.57422 0,-0.19922 0.0391,-0.39063 0.11328,-0.57422 0.0781,-0.1836 0.18359,-0.34375 0.32422,-0.48438 0.14062,-0.14062 0.30469,-0.25 0.48828,-0.32812 0.18359,-0.0742 0.375,-0.11328 0.57422,-0.11328 0.19922,0 0.39062,0.0391 0.57422,0.11328 0.18359,0.0781 0.34765,0.1875 0.48828,0.32812 0.14062,0.14063 0.24609,0.30078 0.32422,0.48438 0.0742,0.18359 0.11328,0.375 0.11328,0.57422 z m 0,5.875 c 0,0.19922 -0.0391,0.39062 -0.11328,0.57422 -0.0781,0.18359 -0.1836,0.34765 -0.32422,0.48828 -0.14063,0.14062 -0.30469,0.25 -0.48828,0.32422 -0.1836,0.0781 -0.375,0.11718 -0.57422,0.11718 -0.19922,0 -0.39063,-0.0391 -0.57422,-0.11718 -0.18359,-0.0742 -0.34766,-0.1836 -0.48828,-0.32422 -0.14063,-0.14063 -0.24609,-0.30469 -0.32422,-0.48828 -0.0742,-0.1836 -0.11328,-0.375 -0.11328,-0.57422 0,-0.19922 0.0391,-0.39063 0.11328,-0.57422 0.0781,-0.1836 0.18359,-0.34375 0.32422,-0.48438 0.14062,-0.14062 0.30469,-0.25 0.48828,-0.32812 0.18359,-0.0742 0.375,-0.11328 0.57422,-0.11328 0.19922,0 0.39062,0.0391 0.57422,0.11328 0.18359,0.0781 0.34765,0.1875 0.48828,0.32812 0.14062,0.14063 0.24609,0.30078 0.32422,0.48438 0.0742,0.18359 0.11328,0.375 0.11328,0.57422 z m 0,5.875 c 0,0.19922 -0.0391,0.39062 -0.11328,0.57812 -0.0781,0.1836 -0.1836,0.34375 -0.32422,0.48438 -0.14063,0.14062 -0.30469,0.25 -0.48828,0.32422 -0.1836,0.0781 -0.375,0.11718 -0.57422,0.11718 -0.19922,0 -0.39063,-0.0391 -0.57422,-0.11718 -0.18359,-0.0742 -0.34766,-0.1836 -0.48828,-0.32422 -0.14063,-0.14063 -0.24609,-0.30078 -0.32422,-0.48438 -0.0742,-0.1875 -0.11328,-0.3789 -0.11328,-0.57812 0,-0.19532 0.0391,-0.38672 0.11328,-0.57422 0.0781,-0.1836 0.18359,-0.34375 0.32422,-0.48438 0.14062,-0.14062 0.30469,-0.25 0.48828,-0.32422 0.18359,-0.0781 0.375,-0.11718 0.57422,-0.11718 0.19922,0 0.39062,0.0391 0.57422,0.11718 0.18359,0.0742 0.34765,0.1836 0.48828,0.32422 0.14062,0.14063 0.24609,0.30078 0.32422,0.48438 0.0742,0.1875 0.11328,0.3789 0.11328,0.57422 z m 0,5.8789 c 0,0.19922 -0.0391,0.39063 -0.11328,0.57422 -0.0781,0.1836 -0.1836,0.34375 -0.32422,0.48438 -0.14063,0.14062 -0.30469,0.25 -0.48828,0.32812 -0.1836,0.0742 -0.375,0.11328 -0.57422,0.11328 -0.19922,0 -0.39063,-0.0391 -0.57422,-0.11328 -0.18359,-0.0781 -0.34766,-0.1875 -0.48828,-0.32812 -0.14063,-0.14063 -0.24609,-0.30078 -0.32422,-0.48438 -0.0742,-0.18359 -0.11328,-0.375 -0.11328,-0.57422 0,-0.19922 0.0391,-0.39062 0.11328,-0.57422 0.0781,-0.1875 0.18359,-0.34765 0.32422,-0.48828 0.14062,-0.14062 0.30469,-0.25 0.48828,-0.32422 0.18359,-0.0781 0.375,-0.11718 0.57422,-0.11718 0.19922,0 0.39062,0.0391 0.57422,0.11718 0.18359,0.0742 0.34765,0.1836 0.48828,0.32422 0.14062,0.14063 0.24609,0.30078 0.32422,0.48828 0.0742,0.1836 0.11328,0.375 0.11328,0.57422 z m 0,5.875 c 0,0.19922 -0.0391,0.39063 -0.11328,0.57422 -0.0781,0.1836 -0.1836,0.34375 -0.32422,0.48438 -0.14063,0.14062 -0.30469,0.25 -0.48828,0.32812 -0.1836,0.0742 -0.375,0.11328 -0.57422,0.11328 -0.19922,0 -0.39063,-0.0391 -0.57422,-0.11328 -0.18359,-0.0781 -0.34766,-0.1875 -0.48828,-0.32812 -0.14063,-0.14063 -0.24609,-0.30078 -0.32422,-0.48438 -0.0742,-0.18359 -0.11328,-0.375 -0.11328,-0.57422 0,-0.19922 0.0391,-0.39062 0.11328,-0.57422 0.0781,-0.18359 0.18359,-0.34765 0.32422,-0.48828 0.14062,-0.14062 0.30469,-0.25 0.48828,-0.32422 0.18359,-0.0781 0.375,-0.11718 0.57422,-0.11718 0.19922,0 0.39062,0.0391 0.57422,0.11718 0.18359,0.0742 0.34765,0.1836 0.48828,0.32422 0.14062,0.14063 0.24609,0.30469 0.32422,0.48828 0.0742,0.1836 0.11328,0.375 0.11328,0.57422 z m 0,5.875 c 0,0.19922 -0.0391,0.39063 -0.11328,0.57422 -0.0781,0.1836 -0.1836,0.34375 -0.32422,0.48438 -0.14063,0.14062 -0.30469,0.25 -0.48828,0.32812 -0.1836,0.0742 -0.375,0.11328 -0.57422,0.11328 -0.19922,0 -0.39063,-0.0391 -0.57422,-0.11328 -0.18359,-0.0781 -0.34766,-0.1875 -0.48828,-0.32812 -0.14063,-0.14063 -0.24609,-0.30078 -0.32422,-0.48438 -0.0742,-0.18359 -0.11328,-0.375 -0.11328,-0.57422 0,-0.19922 0.0391,-0.39062 0.11328,-0.57422 0.0781,-0.18359 0.18359,-0.34765 0.32422,-0.48828 0.14062,-0.14062 0.30469,-0.25 0.48828,-0.32422 0.18359,-0.0781 0.375,-0.11328 0.57422,-0.11328 0.19922,0 0.39062,0.0352 0.57422,0.11328 0.18359,0.0742 0.34765,0.1836 0.48828,0.32422 0.14062,0.14063 0.24609,0.30469 0.32422,0.48828 0.0742,0.1836 0.11328,0.375 0.11328,0.57422 z m 0,5.875 c 0,0.19922 -0.0391,0.39063 -0.11328,0.57422 -0.0781,0.1836 -0.1836,0.34375 -0.32422,0.48438 -0.14063,0.14062 -0.30469,0.25 -0.48828,0.32812 -0.1836,0.0742 -0.375,0.11328 -0.57422,0.11328 -0.19922,0 -0.39063,-0.0391 -0.57422,-0.11328 -0.18359,-0.0781 -0.34766,-0.1875 -0.48828,-0.32812 -0.14063,-0.14063 -0.24609,-0.30078 -0.32422,-0.48438 -0.0742,-0.18359 -0.11328,-0.375 -0.11328,-0.57422 0,-0.19922 0.0391,-0.39062 0.11328,-0.57422 0.0781,-0.18359 0.18359,-0.34765 0.32422,-0.48828 0.14062,-0.14062 0.30469,-0.25 0.48828,-0.32422 0.18359,-0.0781 0.375,-0.11328 0.57422,-0.11328 0.19922,0 0.39062,0.0352 0.57422,0.11328 0.18359,0.0742 0.34765,0.1836 0.48828,0.32422 0.14062,0.14063 0.24609,0.30469 0.32422,0.48828 0.0742,0.1836 0.11328,0.375 0.11328,0.57422 z m 0,5.875 c 0,0.19922 -0.0391,0.39063 -0.11328,0.57422 -0.0781,0.1836 -0.1836,0.34766 -0.32422,0.48828 -0.14063,0.14063 -0.30469,0.2461 -0.48828,0.32422 -0.1836,0.0742 -0.375,0.11328 -0.57422,0.11328 -0.19922,0 -0.39063,-0.0391 -0.57422,-0.11328 -0.18359,-0.0781 -0.34766,-0.18359 -0.48828,-0.32422 -0.14063,-0.14062 -0.24609,-0.30468 -0.32422,-0.48828 -0.0742,-0.18359 -0.11328,-0.375 -0.11328,-0.57422 0,-0.19922 0.0391,-0.39062 0.11328,-0.57422 0.0781,-0.18359 0.18359,-0.34765 0.32422,-0.48828 0.14062,-0.14062 0.30469,-0.25 0.48828,-0.32422 0.18359,-0.0781 0.375,-0.11328 0.57422,-0.11328 0.19922,0 0.39062,0.0352 0.57422,0.11328 0.18359,0.0742 0.34765,0.1836 0.48828,0.32422 0.14062,0.14063 0.24609,0.30469 0.32422,0.48828 0.0742,0.1836 0.11328,0.375 0.11328,0.57422 z m 0,5.875 c 0,0.19922 -0.0391,0.39063 -0.11328,0.57422 -0.0781,0.1836 -0.1836,0.34766 -0.32422,0.48828 -0.14063,0.14063 -0.30469,0.2461 -0.48828,0.32422 -0.1836,0.0742 -0.375,0.11328 -0.57422,0.11328 -0.19922,0 -0.39063,-0.0391 -0.57422,-0.11328 -0.18359,-0.0781 -0.34766,-0.18359 -0.48828,-0.32422 -0.14063,-0.14062 -0.24609,-0.30468 -0.32422,-0.48828 -0.0742,-0.18359 -0.11328,-0.375 -0.11328,-0.57422 0,-0.19922 0.0391,-0.39062 0.11328,-0.57422 0.0781,-0.18359 0.18359,-0.34765 0.32422,-0.48828 0.14062,-0.14062 0.30469,-0.24609 0.48828,-0.32422 0.18359,-0.0742 0.375,-0.11328 0.57422,-0.11328 0.19922,0 0.39062,0.0391 0.57422,0.11328 0.18359,0.0781 0.34765,0.1836 0.48828,0.32422 0.14062,0.14063 0.24609,0.30469 0.32422,0.48828 0.0742,0.1836 0.11328,0.375 0.11328,0.57422 z m 0,5.875 c 0,0.19922 -0.0391,0.39063 -0.11328,0.57422 -0.0781,0.1836 -0.1836,0.34766 -0.32422,0.48828 -0.14063,0.14063 -0.30469,0.2461 -0.48828,0.32422 -0.1836,0.0742 -0.375,0.11328 -0.57422,0.11328 -0.19922,0 -0.39063,-0.0391 -0.57422,-0.11328 -0.18359,-0.0781 -0.34766,-0.18359 -0.48828,-0.32422 -0.14063,-0.14062 -0.24609,-0.30468 -0.32422,-0.48828 -0.0742,-0.18359 -0.11328,-0.375 -0.11328,-0.57422 0,-0.19922 0.0391,-0.39062 0.11328,-0.57422 0.0781,-0.18359 0.18359,-0.34765 0.32422,-0.48828 0.14062,-0.14062 0.30469,-0.24609 0.48828,-0.32422 0.18359,-0.0742 0.375,-0.11328 0.57422,-0.11328 0.19922,0 0.39062,0.0391 0.57422,0.11328 0.18359,0.0781 0.34765,0.1836 0.48828,0.32422 0.14062,0.14063 0.24609,0.30469 0.32422,0.48828 0.0742,0.1836 0.11328,0.375 0.11328,0.57422 z m 0,5.875 c 0,0.19922 -0.0391,0.39063 -0.11328,0.57422 -0.0781,0.1836 -0.1836,0.34766 -0.32422,0.48828 -0.14063,0.14063 -0.30469,0.25 -0.48828,0.32422 -0.1836,0.0781 -0.375,0.11328 -0.57422,0.11328 -0.19922,0 -0.39063,-0.0351 -0.57422,-0.11328 -0.18359,-0.0742 -0.34766,-0.18359 -0.48828,-0.32422 -0.14063,-0.14062 -0.24609,-0.30468 -0.32422,-0.48828 -0.0742,-0.18359 -0.11328,-0.375 -0.11328,-0.57422 0,-0.19922 0.0391,-0.39062 0.11328,-0.57422 0.0781,-0.18359 0.18359,-0.34765 0.32422,-0.48828 0.14062,-0.14062 0.30469,-0.24609 0.48828,-0.32422 0.18359,-0.0742 0.375,-0.11328 0.57422,-0.11328 0.19922,0 0.39062,0.0391 0.57422,0.11328 0.18359,0.0781 0.34765,0.1836 0.48828,0.32422 0.14062,0.14063 0.24609,0.30469 0.32422,0.48828 0.0742,0.1836 0.11328,0.375 0.11328,0.57422 z m 0,5.875 c 0,0.19922 -0.0391,0.39063 -0.11328,0.57422 -0.0781,0.1836 -0.1836,0.34766 -0.32422,0.48828 -0.14063,0.14063 -0.30469,0.25 -0.48828,0.32422 -0.1836,0.0781 -0.375,0.11328 -0.57422,0.11328 -0.19922,0 -0.39063,-0.0351 -0.57422,-0.11328 -0.18359,-0.0742 -0.34766,-0.18359 -0.48828,-0.32422 -0.14063,-0.14062 -0.24609,-0.30468 -0.32422,-0.48828 -0.0742,-0.18359 -0.11328,-0.375 -0.11328,-0.57422 0,-0.19922 0.0391,-0.39062 0.11328,-0.57422 0.0781,-0.18359 0.18359,-0.34375 0.32422,-0.48437 0.14062,-0.14063 0.30469,-0.25 0.48828,-0.32813 0.18359,-0.0742 0.375,-0.11328 0.57422,-0.11328 0.19922,0 0.39062,0.0391 0.57422,0.11328 0.18359,0.0781 0.34765,0.1875 0.48828,0.32813 0.14062,0.14062 0.24609,0.30078 0.32422,0.48437 0.0742,0.1836 0.11328,0.375 0.11328,0.57422 z m 0,5.875 c 0,0.19922 -0.0391,0.39063 -0.11328,0.57422 -0.0781,0.1836 -0.1836,0.34766 -0.32422,0.48828 -0.14063,0.14063 -0.30469,0.25 -0.48828,0.32422 -0.1836,0.0781 -0.375,0.11328 -0.57422,0.11328 -0.19922,0 -0.39063,-0.0351 -0.57422,-0.11328 -0.18359,-0.0742 -0.34766,-0.18359 -0.48828,-0.32422 -0.14063,-0.14062 -0.24609,-0.30468 -0.32422,-0.48828 -0.0742,-0.18359 -0.11328,-0.375 -0.11328,-0.57422 0,-0.19922 0.0391,-0.39062 0.11328,-0.57422 0.0781,-0.18359 0.18359,-0.34375 0.32422,-0.48437 0.14062,-0.14063 0.30469,-0.25 0.48828,-0.32813 0.18359,-0.0742 0.375,-0.11328 0.57422,-0.11328 0.19922,0 0.39062,0.0391 0.57422,0.11328 0.18359,0.0781 0.34765,0.1875 0.48828,0.32813 0.14062,0.14062 0.24609,0.30078 0.32422,0.48437 0.0742,0.1836 0.11328,0.375 0.11328,0.57422 z m 0,5.875 c 0,0.19922 -0.0391,0.39063 -0.11328,0.57422 -0.0781,0.1836 -0.1836,0.34766 -0.32422,0.48828 -0.14063,0.14063 -0.30469,0.25 -0.48828,0.32422 -0.1836,0.0781 -0.375,0.11719 -0.57422,0.11719 -0.19922,0 -0.39063,-0.0391 -0.57422,-0.11719 -0.18359,-0.0742 -0.34766,-0.18359 -0.48828,-0.32422 -0.14063,-0.14062 -0.24609,-0.30468 -0.32422,-0.48828 -0.0742,-0.18359 -0.11328,-0.375 -0.11328,-0.57422 0,-0.19922 0.0391,-0.39062 0.11328,-0.57422 0.0781,-0.18359 0.18359,-0.34375 0.32422,-0.48437 0.14062,-0.14063 0.30469,-0.25 0.48828,-0.32813 0.18359,-0.0742 0.375,-0.11328 0.57422,-0.11328 0.19922,0 0.39062,0.0391 0.57422,0.11328 0.18359,0.0781 0.34765,0.1875 0.48828,0.32813 0.14062,0.14062 0.24609,0.30078 0.32422,0.48437 0.0742,0.1836 0.11328,0.375 0.11328,0.57422 z m 0,5.875 c 0,0.19922 -0.0391,0.39063 -0.11328,0.57422 -0.0781,0.1875 -0.1836,0.34766 -0.32422,0.48828 -0.14063,0.14063 -0.30469,0.25 -0.48828,0.32422 -0.1836,0.0781 -0.375,0.11719 -0.57422,0.11719 -0.19922,0 -0.39063,-0.0391 -0.57422,-0.11719 -0.18359,-0.0742 -0.34766,-0.18359 -0.48828,-0.32422 -0.14063,-0.14062 -0.24609,-0.30078 -0.32422,-0.48828 -0.0742,-0.18359 -0.11328,-0.375 -0.11328,-0.57422 0,-0.19922 0.0391,-0.39062 0.11328,-0.57422 0.0781,-0.18359 0.18359,-0.34375 0.32422,-0.48437 0.14062,-0.14063 0.30469,-0.25 0.48828,-0.32813 0.18359,-0.0742 0.375,-0.11328 0.57422,-0.11328 0.19922,0 0.39062,0.0391 0.57422,0.11328 0.18359,0.0781 0.34765,0.1875 0.48828,0.32813 0.14062,0.14062 0.24609,0.30078 0.32422,0.48437 0.0742,0.1836 0.11328,0.375 0.11328,0.57422 z m 0,5.87891 c 0,0.19531 -0.0391,0.38672 -0.11328,0.57422 -0.0781,0.18359 -0.1836,0.34375 -0.32422,0.48437 -0.14063,0.14063 -0.30469,0.25 -0.48828,0.32422 -0.1836,0.0781 -0.375,0.11719 -0.57422,0.11719 -0.19922,0 -0.39063,-0.0391 -0.57422,-0.11719 -0.18359,-0.0742 -0.34766,-0.18359 -0.48828,-0.32422 -0.14063,-0.14062 -0.24609,-0.30078 -0.32422,-0.48437 -0.0742,-0.1875 -0.11328,-0.37891 -0.11328,-0.57422 0,-0.19922 0.0391,-0.39063 0.11328,-0.57813 0.0781,-0.18359 0.18359,-0.34375 0.32422,-0.48437 0.14062,-0.14063 0.30469,-0.25 0.48828,-0.32422 0.18359,-0.0781 0.375,-0.11719 0.57422,-0.11719 0.19922,0 0.39062,0.0391 0.57422,0.11719 0.18359,0.0742 0.34765,0.18359 0.48828,0.32422 0.14062,0.14062 0.24609,0.30078 0.32422,0.48437 0.0742,0.1875 0.11328,0.37891 0.11328,0.57813 z m 0,5.875 c 0,0.19922 -0.0391,0.39062 -0.11328,0.57422 -0.0781,0.18359 -0.1836,0.34375 -0.32422,0.48437 -0.14063,0.14063 -0.30469,0.25 -0.48828,0.32813 -0.1836,0.0742 -0.375,0.11328 -0.57422,0.11328 -0.19922,0 -0.39063,-0.0391 -0.57422,-0.11328 -0.18359,-0.0781 -0.34766,-0.1875 -0.48828,-0.32813 -0.14063,-0.14062 -0.24609,-0.30078 -0.32422,-0.48437 -0.0742,-0.1836 -0.11328,-0.375 -0.11328,-0.57422 0,-0.19922 0.0391,-0.39063 0.11328,-0.57422 0.0781,-0.1875 0.18359,-0.34766 0.32422,-0.48828 0.14062,-0.14063 0.30469,-0.25 0.48828,-0.32422 0.18359,-0.0781 0.375,-0.11719 0.57422,-0.11719 0.19922,0 0.39062,0.0391 0.57422,0.11719 0.18359,0.0742 0.34765,0.18359 0.48828,0.32422 0.14062,0.14062 0.24609,0.30078 0.32422,0.48828 0.0742,0.18359 0.11328,0.375 0.11328,0.57422 z m 0,5.875 c 0,0.19922 -0.0391,0.39062 -0.11328,0.57422 -0.0781,0.18359 -0.1836,0.34375 -0.32422,0.48437 -0.14063,0.14063 -0.30469,0.25 -0.48828,0.32813 -0.1836,0.0742 -0.375,0.11328 -0.57422,0.11328 -0.19922,0 -0.39063,-0.0391 -0.57422,-0.11328 -0.18359,-0.0781 -0.34766,-0.1875 -0.48828,-0.32813 -0.14063,-0.14062 -0.24609,-0.30078 -0.32422,-0.48437 -0.0742,-0.1836 -0.11328,-0.375 -0.11328,-0.57422 0,-0.19922 0.0391,-0.39063 0.11328,-0.57422 0.0781,-0.18359 0.18359,-0.34766 0.32422,-0.48828 0.14062,-0.14063 0.30469,-0.25 0.48828,-0.32422 0.18359,-0.0781 0.375,-0.11719 0.57422,-0.11719 0.19922,0 0.39062,0.0391 0.57422,0.11719 0.18359,0.0742 0.34765,0.18359 0.48828,0.32422 0.14062,0.14062 0.24609,0.30469 0.32422,0.48828 0.0742,0.18359 0.11328,0.375 0.11328,0.57422 z m 0,5.875 c 0,0.19922 -0.0391,0.39062 -0.11328,0.57422 -0.0781,0.18359 -0.1836,0.34375 -0.32422,0.48437 -0.14063,0.14063 -0.30469,0.25 -0.48828,0.32813 -0.1836,0.0742 -0.375,0.11328 -0.57422,0.11328 -0.19922,0 -0.39063,-0.0391 -0.57422,-0.11328 -0.18359,-0.0781 -0.34766,-0.1875 -0.48828,-0.32813 -0.14063,-0.14062 -0.24609,-0.30078 -0.32422,-0.48437 -0.0742,-0.1836 -0.11328,-0.375 -0.11328,-0.57422 0,-0.19922 0.0391,-0.39063 0.11328,-0.57422 0.0781,-0.18359 0.18359,-0.34766 0.32422,-0.48828 0.14062,-0.14063 0.30469,-0.25 0.48828,-0.32422 0.18359,-0.0781 0.375,-0.11328 0.57422,-0.11328 0.19922,0 0.39062,0.0352 0.57422,0.11328 0.18359,0.0742 0.34765,0.18359 0.48828,0.32422 0.14062,0.14062 0.24609,0.30469 0.32422,0.48828 0.0742,0.18359 0.11328,0.375 0.11328,0.57422 z m 0,5.875 c 0,0.19922 -0.0391,0.39062 -0.11328,0.57422 -0.0781,0.18359 -0.1836,0.34375 -0.32422,0.48437 -0.14063,0.14063 -0.30469,0.25 -0.48828,0.32813 -0.1836,0.0742 -0.375,0.11328 -0.57422,0.11328 -0.19922,0 -0.39063,-0.0391 -0.57422,-0.11328 -0.18359,-0.0781 -0.34766,-0.1875 -0.48828,-0.32813 -0.14063,-0.14062 -0.24609,-0.30078 -0.32422,-0.48437 -0.0742,-0.1836 -0.11328,-0.375 -0.11328,-0.57422 0,-0.19922 0.0391,-0.39063 0.11328,-0.57422 0.0781,-0.18359 0.18359,-0.34766 0.32422,-0.48828 0.14062,-0.14063 0.30469,-0.25 0.48828,-0.32422 0.18359,-0.0781 0.375,-0.11328 0.57422,-0.11328 0.19922,0 0.39062,0.0352 0.57422,0.11328 0.18359,0.0742 0.34765,0.18359 0.48828,0.32422 0.14062,0.14062 0.24609,0.30469 0.32422,0.48828 0.0742,0.18359 0.11328,0.375 0.11328,0.57422 z m 0,5.875 c 0,0.19922 -0.0391,0.39062 -0.11328,0.57422 -0.0781,0.18359 -0.1836,0.34765 -0.32422,0.48828 -0.14063,0.14062 -0.30469,0.24609 -0.48828,0.32422 -0.1836,0.0742 -0.375,0.11328 -0.57422,0.11328 -0.19922,0 -0.39063,-0.0391 -0.57422,-0.11328 -0.18359,-0.0781 -0.34766,-0.1836 -0.48828,-0.32422 -0.14063,-0.14063 -0.24609,-0.30469 -0.32422,-0.48828 -0.0742,-0.1836 -0.11328,-0.375 -0.11328,-0.57422 0,-0.19922 0.0391,-0.39063 0.11328,-0.57422 0.0781,-0.18359 0.18359,-0.34766 0.32422,-0.48828 0.14062,-0.14063 0.30469,-0.25 0.48828,-0.32422 0.18359,-0.0781 0.375,-0.11328 0.57422,-0.11328 0.19922,0 0.39062,0.0352 0.57422,0.11328 0.18359,0.0742 0.34765,0.18359 0.48828,0.32422 0.14062,0.14062 0.24609,0.30469 0.32422,0.48828 0.0742,0.18359 0.11328,0.375 0.11328,0.57422 z m 0,5.875 c 0,0.19922 -0.0391,0.39062 -0.11328,0.57422 -0.0781,0.18359 -0.1836,0.34765 -0.32422,0.48828 -0.14063,0.14062 -0.30469,0.24609 -0.48828,0.32422 -0.1836,0.0742 -0.375,0.11328 -0.57422,0.11328 -0.19922,0 -0.39063,-0.0391 -0.57422,-0.11328 -0.18359,-0.0781 -0.34766,-0.1836 -0.48828,-0.32422 -0.14063,-0.14063 -0.24609,-0.30469 -0.32422,-0.48828 -0.0742,-0.1836 -0.11328,-0.375 -0.11328,-0.57422 0,-0.19922 0.0391,-0.39063 0.11328,-0.57422 0.0781,-0.18359 0.18359,-0.34766 0.32422,-0.48828 0.14062,-0.14063 0.30469,-0.24609 0.48828,-0.32422 0.18359,-0.0742 0.375,-0.11328 0.57422,-0.11328 0.19922,0 0.39062,0.0391 0.57422,0.11328 0.18359,0.0781 0.34765,0.18359 0.48828,0.32422 0.14062,0.14062 0.24609,0.30469 0.32422,0.48828 0.0742,0.18359 0.11328,0.375 0.11328,0.57422 z m 0,5.875 c 0,0.19922 -0.0391,0.39062 -0.11328,0.57422 -0.0781,0.18359 -0.1836,0.34765 -0.32422,0.48828 -0.14063,0.14062 -0.30469,0.24609 -0.48828,0.32422 -0.1836,0.0742 -0.375,0.11328 -0.57422,0.11328 -0.19922,0 -0.39063,-0.0391 -0.57422,-0.11328 -0.18359,-0.0781 -0.34766,-0.1836 -0.48828,-0.32422 -0.14063,-0.14063 -0.24609,-0.30469 -0.32422,-0.48828 -0.0742,-0.1836 -0.11328,-0.375 -0.11328,-0.57422 0,-0.19922 0.0391,-0.39063 0.11328,-0.57422 0.0781,-0.18359 0.18359,-0.34766 0.32422,-0.48828 0.14062,-0.14063 0.30469,-0.24609 0.48828,-0.32422 0.18359,-0.0742 0.375,-0.11328 0.57422,-0.11328 0.19922,0 0.39062,0.0391 0.57422,0.11328 0.18359,0.0781 0.34765,0.18359 0.48828,0.32422 0.14062,0.14062 0.24609,0.30469 0.32422,0.48828 0.0742,0.18359 0.11328,0.375 0.11328,0.57422 z m 0,0"
         id="path14996" />
    </g>
    <g
       style="fill:#000000;fill-opacity:1"
       id="g15002"
       transform="matrix(1.3333333,0,0,1.3333333,-95.796514,-369.24325)">
      <g
         id="use15000"
         transform="translate(338.45316,426.93683)">
        <path
           style="stroke:none"
           d="m 4.671875,0 v -11.375 h -4.25 v -1.515625 h 10.21875 V -11.375 H 6.375 V 0 Z m 0,0"
           id="path19110" />
      </g>
    </g>
    <g
       style="fill:#000000;fill-opacity:1"
       id="g15024"
       transform="matrix(1.3333333,0,0,1.3333333,-95.796514,-369.24325)">
      <g
         id="use15004"
         transform="translate(348.78525,426.93683)">
        <path
           style="stroke:none"
           d="M 1.171875,0 V -9.34375 H 2.59375 v 1.421875 c 0.363281,-0.664063 0.695312,-1.101563 1,-1.3125 0.3125,-0.207031 0.65625,-0.3125 1.03125,-0.3125 0.53125,0 1.070312,0.167969 1.625,0.5 l -0.546875,1.46875 c -0.386719,-0.226563 -0.773437,-0.34375 -1.15625,-0.34375 -0.355469,0 -0.671875,0.105469 -0.953125,0.3125 -0.273438,0.210937 -0.464844,0.5 -0.578125,0.875 C 2.835938,-6.171875 2.75,-5.554688 2.75,-4.890625 V 0 Z m 0,0"
           id="path19102" />
      </g>
      <g
         id="use15006"
         transform="translate(354.78226,426.93683)">
        <path
           style="stroke:none"
           d="m 7.28125,-1.15625 c -0.585938,0.5 -1.148438,0.855469 -1.6875,1.0625 -0.542969,0.207031 -1.125,0.3125 -1.75,0.3125 -1.023438,0 -1.808594,-0.25 -2.359375,-0.75 C 0.929688,-1.039062 0.65625,-1.6875 0.65625,-2.46875 c 0,-0.457031 0.101562,-0.875 0.3125,-1.25 0.207031,-0.375 0.476562,-0.675781 0.8125,-0.90625 0.332031,-0.226562 0.710938,-0.398438 1.140625,-0.515625 0.3125,-0.082031 0.78125,-0.164063 1.40625,-0.25 1.28125,-0.144531 2.222656,-0.320313 2.828125,-0.53125 0,-0.21875 0,-0.359375 0,-0.421875 0,-0.644531 -0.148438,-1.097656 -0.4375,-1.359375 C 6.3125,-8.066406 5.707031,-8.25 4.90625,-8.25 4.164062,-8.25 3.617188,-8.113281 3.265625,-7.84375 2.910156,-7.582031 2.644531,-7.125 2.46875,-6.46875 L 0.921875,-6.671875 C 1.066406,-7.335938 1.300781,-7.875 1.625,-8.28125 1.945312,-8.6875 2.410156,-9 3.015625,-9.21875 c 0.613281,-0.21875 1.320313,-0.328125 2.125,-0.328125 0.789063,0 1.4375,0.09375 1.9375,0.28125 0.5,0.1875 0.863281,0.421875 1.09375,0.703125 0.238281,0.28125 0.40625,0.640625 0.5,1.078125 C 8.722656,-7.210938 8.75,-6.726562 8.75,-6.03125 v 2.109375 c 0,1.480469 0.03125,2.417969 0.09375,2.8125 C 8.914062,-0.722656 9.050781,-0.351562 9.25,0 H 7.59375 C 7.4375,-0.332031 7.332031,-0.71875 7.28125,-1.15625 Z M 7.15625,-4.6875 C 6.582031,-4.457031 5.71875,-4.257812 4.5625,-4.09375 3.914062,-4 3.457031,-3.890625 3.1875,-3.765625 2.914062,-3.648438 2.707031,-3.476562 2.5625,-3.25 2.414062,-3.03125 2.34375,-2.78125 2.34375,-2.5 c 0,0.417969 0.15625,0.765625 0.46875,1.046875 0.320312,0.28125 0.789062,0.421875 1.40625,0.421875 0.613281,0 1.15625,-0.128906 1.625,-0.390625 C 6.320312,-1.691406 6.671875,-2.0625 6.890625,-2.53125 7.066406,-2.882812 7.15625,-3.410156 7.15625,-4.109375 Z m 0,0"
           id="path19158" />
      </g>
      <g
         id="use15008"
         transform="translate(364.79776,426.93683)">
        <path
           style="stroke:none"
           d="m 1.1875,0 v -9.34375 h 1.421875 v 1.328125 c 0.6875,-1.019531 1.675781,-1.53125 2.96875,-1.53125 0.570313,0 1.09375,0.101563 1.5625,0.296875 0.46875,0.199219 0.816406,0.464844 1.046875,0.796875 0.238281,0.324219 0.40625,0.714844 0.5,1.171875 C 8.75,-6.988281 8.78125,-6.476562 8.78125,-5.75 V 0 H 7.203125 v -5.6875 c 0,-0.644531 -0.0625,-1.125 -0.1875,-1.4375 -0.125,-0.320312 -0.34375,-0.578125 -0.65625,-0.765625 C 6.046875,-8.085938 5.675781,-8.1875 5.25,-8.1875 c -0.679688,0 -1.261719,0.21875 -1.75,0.65625 -0.492188,0.429688 -0.734375,1.234375 -0.734375,2.421875 V 0 Z m 0,0"
           id="path19174" />
      </g>
      <g
         id="use15010"
         transform="translate(374.81329,426.93683)">
        <path
           style="stroke:none"
           d="m 0.546875,-2.78125 1.578125,-0.25 c 0.082031,0.625 0.320312,1.105469 0.71875,1.4375 0.40625,0.335938 0.972656,0.5 1.703125,0.5 0.71875,0 1.253906,-0.144531 1.609375,-0.4375 0.351562,-0.300781 0.53125,-0.648438 0.53125,-1.046875 0,-0.351563 -0.15625,-0.632813 -0.46875,-0.84375 C 6,-3.566406 5.457031,-3.742188 4.59375,-3.953125 3.4375,-4.242188 2.632812,-4.5 2.1875,-4.71875 1.738281,-4.9375 1.394531,-5.234375 1.15625,-5.609375 c -0.230469,-0.375 -0.34375,-0.789063 -0.34375,-1.25 0,-0.414063 0.09375,-0.800781 0.28125,-1.15625 0.195312,-0.351563 0.457031,-0.648437 0.78125,-0.890625 0.25,-0.175781 0.585938,-0.328125 1.015625,-0.453125 0.425781,-0.125 0.878906,-0.1875 1.359375,-0.1875 0.738281,0 1.382812,0.105469 1.9375,0.3125 0.550781,0.210937 0.957031,0.496094 1.21875,0.859375 0.269531,0.355469 0.457031,0.835938 0.5625,1.4375 l -1.5625,0.21875 C 6.34375,-7.195312 6.140625,-7.570312 5.796875,-7.84375 5.460938,-8.113281 4.988281,-8.25 4.375,-8.25 c -0.730469,0 -1.25,0.121094 -1.5625,0.359375 -0.3125,0.242187 -0.46875,0.523437 -0.46875,0.84375 0,0.210937 0.066406,0.398437 0.203125,0.5625 0.125,0.167969 0.328125,0.308594 0.609375,0.421875 0.15625,0.054688 0.617188,0.183594 1.390625,0.390625 1.125,0.304687 1.90625,0.554687 2.34375,0.75 0.445313,0.1875 0.796875,0.464844 1.046875,0.828125 0.25,0.367188 0.375,0.8125 0.375,1.34375 0,0.53125 -0.15625,1.03125 -0.46875,1.5 -0.304688,0.46875 -0.746094,0.835938 -1.328125,1.09375 -0.585937,0.25 -1.242187,0.375 -1.96875,0.375 -1.210937,0 -2.136719,-0.25 -2.78125,-0.75 -0.636719,-0.507812 -1.042969,-1.257812 -1.21875,-2.25 z m 0,0"
           id="path19106" />
      </g>
      <g
         id="use15012"
         transform="translate(383.8176,426.93683)">
        <path
           style="stroke:none"
           d="M 1.15625,0 V -12.890625 H 2.734375 V 0 Z m 0,0"
           id="path19118" />
      </g>
      <g
         id="use15014"
         transform="translate(387.81854,426.93683)">
        <path
           style="stroke:none"
           d="m 7.28125,-1.15625 c -0.585938,0.5 -1.148438,0.855469 -1.6875,1.0625 -0.542969,0.207031 -1.125,0.3125 -1.75,0.3125 -1.023438,0 -1.808594,-0.25 -2.359375,-0.75 C 0.929688,-1.039062 0.65625,-1.6875 0.65625,-2.46875 c 0,-0.457031 0.101562,-0.875 0.3125,-1.25 0.207031,-0.375 0.476562,-0.675781 0.8125,-0.90625 0.332031,-0.226562 0.710938,-0.398438 1.140625,-0.515625 0.3125,-0.082031 0.78125,-0.164063 1.40625,-0.25 1.28125,-0.144531 2.222656,-0.320313 2.828125,-0.53125 0,-0.21875 0,-0.359375 0,-0.421875 0,-0.644531 -0.148438,-1.097656 -0.4375,-1.359375 C 6.3125,-8.066406 5.707031,-8.25 4.90625,-8.25 4.164062,-8.25 3.617188,-8.113281 3.265625,-7.84375 2.910156,-7.582031 2.644531,-7.125 2.46875,-6.46875 L 0.921875,-6.671875 C 1.066406,-7.335938 1.300781,-7.875 1.625,-8.28125 1.945312,-8.6875 2.410156,-9 3.015625,-9.21875 c 0.613281,-0.21875 1.320313,-0.328125 2.125,-0.328125 0.789063,0 1.4375,0.09375 1.9375,0.28125 0.5,0.1875 0.863281,0.421875 1.09375,0.703125 0.238281,0.28125 0.40625,0.640625 0.5,1.078125 C 8.722656,-7.210938 8.75,-6.726562 8.75,-6.03125 v 2.109375 c 0,1.480469 0.03125,2.417969 0.09375,2.8125 C 8.914062,-0.722656 9.050781,-0.351562 9.25,0 H 7.59375 C 7.4375,-0.332031 7.332031,-0.71875 7.28125,-1.15625 Z M 7.15625,-4.6875 C 6.582031,-4.457031 5.71875,-4.257812 4.5625,-4.09375 3.914062,-4 3.457031,-3.890625 3.1875,-3.765625 2.914062,-3.648438 2.707031,-3.476562 2.5625,-3.25 2.414062,-3.03125 2.34375,-2.78125 2.34375,-2.5 c 0,0.417969 0.15625,0.765625 0.46875,1.046875 0.320312,0.28125 0.789062,0.421875 1.40625,0.421875 0.613281,0 1.15625,-0.128906 1.625,-0.390625 C 6.320312,-1.691406 6.671875,-2.0625 6.890625,-2.53125 7.066406,-2.882812 7.15625,-3.410156 7.15625,-4.109375 Z m 0,0"
           id="path19162" />
      </g>
      <g
         id="use15016"
         transform="translate(397.83408,426.93683)">
        <path
           style="stroke:none"
           d="M 4.640625,-1.421875 4.875,-0.015625 C 4.425781,0.078125 4.023438,0.125 3.671875,0.125 c -0.574219,0 -1.023437,-0.0898438 -1.34375,-0.265625 -0.3125,-0.1875 -0.53125,-0.425781 -0.65625,-0.71875 -0.125,-0.300781 -0.1875,-0.925781 -0.1875,-1.875 v -5.375 H 0.3125 V -9.34375 h 1.171875 v -2.3125 l 1.5625,-0.953125 v 3.265625 h 1.59375 v 1.234375 h -1.59375 v 5.46875 c 0,0.449219 0.023437,0.742187 0.078125,0.875 0.0625,0.125 0.15625,0.226563 0.28125,0.296875 0.125,0.074219 0.304688,0.109375 0.546875,0.109375 0.175781,0 0.40625,-0.019531 0.6875,-0.0625 z m 0,0"
           id="path19182" />
      </g>
      <g
         id="use15018"
         transform="translate(402.83743,426.93683)">
        <path
           style="stroke:none"
           d="m 1.203125,-11.078125 v -1.8125 H 2.78125 v 1.8125 z M 1.203125,0 V -9.34375 H 2.78125 V 0 Z m 0,0"
           id="path19146" />
      </g>
      <g
         id="use15020"
         transform="translate(406.83838,426.93683)">
        <path
           style="stroke:none"
           d="m 0.59375,-4.671875 c 0,-1.726563 0.484375,-3.007813 1.453125,-3.84375 0.800781,-0.6875 1.78125,-1.03125 2.9375,-1.03125 1.28125,0 2.328125,0.421875 3.140625,1.265625 0.8125,0.835938 1.21875,1.996094 1.21875,3.484375 0,1.199219 -0.183594,2.140625 -0.546875,2.828125 -0.355469,0.6875 -0.875,1.226562 -1.5625,1.609375 -0.6875,0.3828125 -1.4375,0.578125 -2.25,0.578125 -1.3125,0 -2.375,-0.421875 -3.1875,-1.265625 -0.804687,-0.84375 -1.203125,-2.050781 -1.203125,-3.625 z m 1.625,0 c 0,1.199219 0.257812,2.09375 0.78125,2.6875 0.53125,0.59375 1.191406,0.890625 1.984375,0.890625 0.78125,0 1.429687,-0.296875 1.953125,-0.890625 C 7.457031,-2.585938 7.71875,-3.5 7.71875,-4.71875 7.71875,-5.875 7.457031,-6.75 6.9375,-7.34375 6.414062,-7.945312 5.765625,-8.25 4.984375,-8.25 4.191406,-8.25 3.53125,-7.953125 3,-7.359375 c -0.523438,0.59375 -0.78125,1.492187 -0.78125,2.6875 z m 0,0"
           id="path19126" />
      </g>
      <g
         id="use15022"
         transform="translate(416.85391,426.93683)">
        <path
           style="stroke:none"
           d="m 1.1875,0 v -9.34375 h 1.421875 v 1.328125 c 0.6875,-1.019531 1.675781,-1.53125 2.96875,-1.53125 0.570313,0 1.09375,0.101563 1.5625,0.296875 0.46875,0.199219 0.816406,0.464844 1.046875,0.796875 0.238281,0.324219 0.40625,0.714844 0.5,1.171875 C 8.75,-6.988281 8.78125,-6.476562 8.78125,-5.75 V 0 H 7.203125 v -5.6875 c 0,-0.644531 -0.0625,-1.125 -0.1875,-1.4375 -0.125,-0.320312 -0.34375,-0.578125 -0.65625,-0.765625 C 6.046875,-8.085938 5.675781,-8.1875 5.25,-8.1875 c -0.679688,0 -1.261719,0.21875 -1.75,0.65625 -0.492188,0.429688 -0.734375,1.234375 -0.734375,2.421875 V 0 Z m 0,0"
           id="path19178" />
      </g>
    </g>
    <g
       fill="#000000"
       fill-opacity="1"
       stroke="#000000"
       stroke-opacity="1"
       stroke-width="1"
       stroke-linecap="square"
       stroke-linejoin="miter"
       stroke-miterlimit="2"
       transform="matrix(1,0,0,1,0,0)"
       id="g16" />
    <g
       fill="#000000"
       fill-opacity="1"
       stroke="#000000"
       stroke-opacity="1"
       stroke-width="1"
       stroke-linecap="square"
       stroke-linejoin="miter"
       stroke-miterlimit="2"
       transform="matrix(1,0,0,1,0,0)"
       id="g18" />
    <g
       fill="#000000"
       fill-opacity="1"
       stroke="#000000"
       stroke-opacity="1"
       stroke-width="1"
       stroke-linecap="square"
       stroke-linejoin="miter"
       stroke-miterlimit="2"
       transform="matrix(1,0,0,1,0,0)"
       id="g20" />
    <g
       fill="#000000"
       fill-opacity="1"
       stroke="#000000"
       stroke-opacity="1"
       stroke-width="1"
       stroke-linecap="square"
       stroke-linejoin="miter"
       stroke-miterlimit="2"
       transform="matrix(1,0,0,1,0,0)"
       id="g26" />
    <g
       fill="#000000"
       fill-opacity="1"
       stroke="#000000"
       stroke-opacity="1"
       stroke-width="1"
       stroke-linecap="square"
       stroke-linejoin="miter"
       stroke-miterlimit="2"
       transform="matrix(1,0,0,1,0,0)"
       id="g46" />
    <g
       fill="#000000"
       fill-opacity="1"
       stroke="#000000"
       stroke-opacity="1"
       stroke-width="1"
       stroke-linecap="square"
       stroke-linejoin="miter"
       stroke-miterlimit="2"
       transform="matrix(1,0,0,1,0,0)"
       id="g52" />
    <g
       fill="#000000"
       fill-opacity="1"
       stroke="#000000"
       stroke-opacity="1"
       stroke-width="1"
       stroke-linecap="square"
       stroke-linejoin="miter"
       stroke-miterlimit="2"
       transform="matrix(1,0,0,1,0,0)"
       id="g54" />
    <g
       fill="#000000"
       fill-opacity="1"
       stroke="#000000"
       stroke-opacity="1"
       stroke-width="1"
       stroke-linecap="square"
       stroke-linejoin="miter"
       stroke-miterlimit="2"
       transform="matrix(1,0,0,1,0,0)"
       id="g56" />
    <g
       fill="#000000"
       fill-opacity="1"
       stroke="#000000"
       stroke-opacity="1"
       stroke-width="1"
       stroke-linecap="square"
       stroke-linejoin="miter"
       stroke-miterlimit="2"
       transform="matrix(1,0,0,1,0,0)"
       id="g58" />
    <g
       fill="#000000"
       fill-opacity="1"
       stroke="#000000"
       stroke-opacity="1"
       stroke-width="1"
       stroke-linecap="square"
       stroke-linejoin="miter"
       stroke-miterlimit="2"
       transform="matrix(1,0,0,1,0,0)"
       id="g72" />
    <g
       fill="#000000"
       fill-opacity="1"
       stroke="#000000"
       stroke-opacity="1"
       stroke-width="1"
       stroke-linecap="square"
       stroke-linejoin="miter"
       stroke-miterlimit="2"
       transform="matrix(1,0,0,1,0,0)"
       id="g74" />
    <g
       fill="#000000"
       fill-opacity="1"
       stroke="#000000"
       stroke-opacity="1"
       stroke-width="1"
       stroke-linecap="square"
       stroke-linejoin="miter"
       stroke-miterlimit="2"
       transform="matrix(1,0,0,1,0,0)"
       id="g76" />
    <g
       fill="#000000"
       fill-opacity="1"
       stroke="#000000"
       stroke-opacity="1"
       stroke-width="1"
       stroke-linecap="square"
       stroke-linejoin="miter"
       stroke-miterlimit="2"
       id="g13401"
       transform="matrix(0.38922707,0,0,0.38922707,182.82604,108.82425)" />
  </g>
</svg>
